<svg xmlns="http://www.w3.org/2000/svg" viewBox="0 0 41.43 41.43"><defs><style>.a,.b{fill:#d45153;}.b{stroke:#fff;stroke-miterlimit:10;stroke-width:0.75px;}</style></defs><title>Instagram_Icono</title><circle class="a" cx="20.71" cy="20.71" r="6.29"/><path class="b" d="M26.56,8.24H14.87a7.33,7.33,0,0,0-7.32,7.32v10.3a7.33,7.33,0,0,0,7.32,7.32H26.56a7.33,7.33,0,0,0,7.32-7.32V15.56A7.33,7.33,0,0,0,26.56,8.24ZM20.71,29.09a8.38,8.38,0,1,1,8.38-8.38A8.39,8.39,0,0,1,20.71,29.09ZM29,14.33a1.74,1.74,0,1,1,1.74-1.74A1.74,1.74,0,0,1,29,14.33Z"/><path class="a" d="M32.8,2.36H8.63A6.27,6.27,0,0,0,2.36,8.63V32.8a6.27,6.27,0,0,0,6.27,6.27H32.8a6.27,6.27,0,0,0,6.27-6.27V8.63A6.27,6.27,0,0,0,32.8,2.36ZM36,25.86a9.42,9.42,0,0,1-9.41,9.41H14.87a9.42,9.42,0,0,1-9.41-9.41V15.56a9.42,9.42,0,0,1,9.41-9.41H26.56A9.42,9.42,0,0,1,36,15.56Z"/></svg>