<?xml version="1.0" encoding="utf-8"?>
<!-- Generator: Adobe Illustrator 21.1.0, SVG Export Plug-In . SVG Version: 6.00 Build 0)  -->
<svg version="1.1" id="Capa_1" xmlns="http://www.w3.org/2000/svg" xmlns:xlink="http://www.w3.org/1999/xlink" x="0px" y="0px"
	 viewBox="0 0 135 68" style="enable-background:new 0 0 135 68;" xml:space="preserve">
<style type="text/css">
	.st0{clip-path:url(#SVGID_2_);fill:#FFFFFF;}
	.st1{clip-path:url(#SVGID_4_);fill:#FFFFFF;}
	.st2{clip-path:url(#SVGID_6_);fill:#FFFFFF;}
	.st3{clip-path:url(#SVGID_8_);}
	.st4{clip-path:url(#SVGID_32_);}
	.st5{clip-path:url(#SVGID_33_);}
	.st6{clip-path:url(#SVGID_34_);}
	.st7{clip-path:url(#SVGID_35_);}
	.st8{clip-path:url(#SVGID_36_);}
	.st9{clip-path:url(#SVGID_37_);}
	.st10{clip-path:url(#SVGID_38_);}
	.st11{clip-path:url(#SVGID_39_);}
	.st12{clip-path:url(#SVGID_40_);}
	.st13{clip-path:url(#SVGID_41_);}
	.st14{clip-path:url(#SVGID_42_);}
	.st15{clip-path:url(#SVGID_43_);}
	.st16{clip-path:url(#SVGID_44_);}
	.st17{clip-path:url(#SVGID_45_);}
	.st18{clip-path:url(#SVGID_46_);}
	.st19{clip-path:url(#SVGID_47_);}
	.st20{clip-path:url(#SVGID_48_);}
	.st21{clip-path:url(#SVGID_49_);}
	.st22{clip-path:url(#SVGID_50_);}
	.st23{clip-path:url(#SVGID_51_);}
	.st24{clip-path:url(#SVGID_52_);}
	.st25{clip-path:url(#SVGID_53_);}
	.st26{clip-path:url(#SVGID_54_);fill:#FFFFFF;}
</style>
<g id="Capa_2">
</g>
<g>
	<g>
		<g id="Capa_1_1_">
			<g>
				<defs>
					<rect id="SVGID_1_" x="30.4" y="6" width="74.8" height="56.3"/>
				</defs>
				<use xlink:href="#SVGID_1_"  style="overflow:visible;fill:#FFFFFF;"/>
				<clipPath id="SVGID_2_">
					<use xlink:href="#SVGID_1_"  style="overflow:visible;"/>
				</clipPath>
				<rect x="37.1" y="56" class="st0" width="0.2" height="3.2"/>
			</g>
			<g>
				<defs>
					<rect id="SVGID_3_" x="30.4" y="6" width="74.8" height="56.3"/>
				</defs>
				<use xlink:href="#SVGID_3_"  style="overflow:visible;fill:#FFFFFF;"/>
				<clipPath id="SVGID_4_">
					<use xlink:href="#SVGID_3_"  style="overflow:visible;"/>
				</clipPath>
				<polygon class="st1" points="40.8,59.1 40.4,59.1 38.7,56.4 38.7,59.1 38.4,59.1 38.4,56 38.7,56 40.5,58.5 40.5,56 40.8,56 
									"/>
			</g>
			<g>
				<defs>
					<rect id="SVGID_5_" x="30.4" y="6" width="74.8" height="56.3"/>
				</defs>
				<use xlink:href="#SVGID_5_"  style="overflow:visible;fill:#FFFFFF;"/>
				<clipPath id="SVGID_6_">
					<use xlink:href="#SVGID_5_"  style="overflow:visible;"/>
				</clipPath>
				<polygon class="st2" points="43.9,59.1 43.7,59.1 42.1,56.4 42.1,59.1 41.8,59.1 41.8,56 42,56 43.7,58.5 43.7,56 43.9,56 				
					"/>
			</g>
			<g>
				<defs>
					<rect id="SVGID_7_" x="30.4" y="6" width="74.8" height="56.3"/>
				</defs>
				<use xlink:href="#SVGID_7_"  style="overflow:visible;fill:#FFFFFF;"/>
				<clipPath id="SVGID_8_">
					<use xlink:href="#SVGID_7_"  style="overflow:visible;"/>
				</clipPath>
				<g class="st3">
					<g>
						<defs>
							<rect id="SVGID_9_" x="30.4" y="6" width="74.8" height="56.3"/>
						</defs>
						<defs>
							<rect id="SVGID_10_" x="30.4" y="6" width="74.8" height="56.3"/>
						</defs>
						<defs>
							<rect id="SVGID_11_" x="30.4" y="6" width="74.8" height="56.3"/>
						</defs>
						<defs>
							<rect id="SVGID_12_" x="30.4" y="6" width="74.8" height="56.3"/>
						</defs>
						<defs>
							<rect id="SVGID_13_" x="30.4" y="6" width="74.8" height="56.3"/>
						</defs>
						<defs>
							<rect id="SVGID_14_" x="30.4" y="6" width="74.8" height="56.3"/>
						</defs>
						<defs>
							<rect id="SVGID_15_" x="30.4" y="6" width="74.8" height="56.3"/>
						</defs>
						<defs>
							<rect id="SVGID_16_" x="30.4" y="6" width="74.8" height="56.3"/>
						</defs>
						<defs>
							<rect id="SVGID_17_" x="30.4" y="6" width="74.8" height="56.3"/>
						</defs>
						<defs>
							<rect id="SVGID_18_" x="30.4" y="6" width="74.8" height="56.3"/>
						</defs>
						<defs>
							<rect id="SVGID_19_" x="30.4" y="6" width="74.8" height="56.3"/>
						</defs>
						<defs>
							<rect id="SVGID_20_" x="30.4" y="6" width="74.8" height="56.3"/>
						</defs>
						<defs>
							<rect id="SVGID_21_" x="30.4" y="6" width="74.8" height="56.3"/>
						</defs>
						<defs>
							<rect id="SVGID_22_" x="30.4" y="6" width="74.8" height="56.3"/>
						</defs>
						<defs>
							<rect id="SVGID_23_" x="30.4" y="6" width="74.8" height="56.3"/>
						</defs>
						<defs>
							<rect id="SVGID_24_" x="30.4" y="6" width="74.8" height="56.3"/>
						</defs>
						<defs>
							<rect id="SVGID_25_" x="30.4" y="6" width="74.8" height="56.3"/>
						</defs>
						<defs>
							<rect id="SVGID_26_" x="30.4" y="6" width="74.8" height="56.3"/>
						</defs>
						<defs>
							<rect id="SVGID_27_" x="30.4" y="6" width="74.8" height="56.3"/>
						</defs>
						<defs>
							<rect id="SVGID_28_" x="30.4" y="6" width="74.8" height="56.3"/>
						</defs>
						<defs>
							<rect id="SVGID_29_" x="30.4" y="6" width="74.8" height="56.3"/>
						</defs>
						<defs>
							<rect id="SVGID_30_" x="30.4" y="6" width="74.8" height="56.3"/>
						</defs>
						<defs>
							<rect id="SVGID_31_" x="30.4" y="6" width="74.8" height="56.3"/>
						</defs>
						<use xlink:href="#SVGID_9_"  style="overflow:visible;fill:#FFFFFF;"/>
						<use xlink:href="#SVGID_10_"  style="overflow:visible;fill:#FFFFFF;"/>
						<use xlink:href="#SVGID_11_"  style="overflow:visible;fill:#FFFFFF;"/>
						<use xlink:href="#SVGID_12_"  style="overflow:visible;fill:#FFFFFF;"/>
						<use xlink:href="#SVGID_13_"  style="overflow:visible;fill:#FFFFFF;"/>
						<use xlink:href="#SVGID_14_"  style="overflow:visible;fill:#FFFFFF;"/>
						<use xlink:href="#SVGID_15_"  style="overflow:visible;fill:#FFFFFF;"/>
						<use xlink:href="#SVGID_16_"  style="overflow:visible;fill:#FFFFFF;"/>
						<use xlink:href="#SVGID_17_"  style="overflow:visible;fill:#FFFFFF;"/>
						<use xlink:href="#SVGID_18_"  style="overflow:visible;fill:#FFFFFF;"/>
						<use xlink:href="#SVGID_19_"  style="overflow:visible;fill:#FFFFFF;"/>
						<use xlink:href="#SVGID_20_"  style="overflow:visible;fill:#FFFFFF;"/>
						<use xlink:href="#SVGID_21_"  style="overflow:visible;fill:#FFFFFF;"/>
						<use xlink:href="#SVGID_22_"  style="overflow:visible;fill:#FFFFFF;"/>
						<use xlink:href="#SVGID_23_"  style="overflow:visible;fill:#FFFFFF;"/>
						<use xlink:href="#SVGID_24_"  style="overflow:visible;fill:#FFFFFF;"/>
						<use xlink:href="#SVGID_25_"  style="overflow:visible;fill:#FFFFFF;"/>
						<use xlink:href="#SVGID_26_"  style="overflow:visible;fill:#FFFFFF;"/>
						<use xlink:href="#SVGID_27_"  style="overflow:visible;fill:#FFFFFF;"/>
						<use xlink:href="#SVGID_28_"  style="overflow:visible;fill:#FFFFFF;"/>
						<use xlink:href="#SVGID_29_"  style="overflow:visible;fill:#FFFFFF;"/>
						<use xlink:href="#SVGID_30_"  style="overflow:visible;fill:#FFFFFF;"/>
						<use xlink:href="#SVGID_31_"  style="overflow:visible;fill:#FFFFFF;"/>
						<clipPath id="SVGID_32_">
							<use xlink:href="#SVGID_9_"  style="overflow:visible;"/>
						</clipPath>
						<clipPath id="SVGID_33_" class="st4">
							<use xlink:href="#SVGID_10_"  style="overflow:visible;"/>
						</clipPath>
						<clipPath id="SVGID_34_" class="st5">
							<use xlink:href="#SVGID_11_"  style="overflow:visible;"/>
						</clipPath>
						<clipPath id="SVGID_35_" class="st6">
							<use xlink:href="#SVGID_12_"  style="overflow:visible;"/>
						</clipPath>
						<clipPath id="SVGID_36_" class="st7">
							<use xlink:href="#SVGID_13_"  style="overflow:visible;"/>
						</clipPath>
						<clipPath id="SVGID_37_" class="st8">
							<use xlink:href="#SVGID_14_"  style="overflow:visible;"/>
						</clipPath>
						<clipPath id="SVGID_38_" class="st9">
							<use xlink:href="#SVGID_15_"  style="overflow:visible;"/>
						</clipPath>
						<clipPath id="SVGID_39_" class="st10">
							<use xlink:href="#SVGID_16_"  style="overflow:visible;"/>
						</clipPath>
						<clipPath id="SVGID_40_" class="st11">
							<use xlink:href="#SVGID_17_"  style="overflow:visible;"/>
						</clipPath>
						<clipPath id="SVGID_41_" class="st12">
							<use xlink:href="#SVGID_18_"  style="overflow:visible;"/>
						</clipPath>
						<clipPath id="SVGID_42_" class="st13">
							<use xlink:href="#SVGID_19_"  style="overflow:visible;"/>
						</clipPath>
						<clipPath id="SVGID_43_" class="st14">
							<use xlink:href="#SVGID_20_"  style="overflow:visible;"/>
						</clipPath>
						<clipPath id="SVGID_44_" class="st15">
							<use xlink:href="#SVGID_21_"  style="overflow:visible;"/>
						</clipPath>
						<clipPath id="SVGID_45_" class="st16">
							<use xlink:href="#SVGID_22_"  style="overflow:visible;"/>
						</clipPath>
						<clipPath id="SVGID_46_" class="st17">
							<use xlink:href="#SVGID_23_"  style="overflow:visible;"/>
						</clipPath>
						<clipPath id="SVGID_47_" class="st18">
							<use xlink:href="#SVGID_24_"  style="overflow:visible;"/>
						</clipPath>
						<clipPath id="SVGID_48_" class="st19">
							<use xlink:href="#SVGID_25_"  style="overflow:visible;"/>
						</clipPath>
						<clipPath id="SVGID_49_" class="st20">
							<use xlink:href="#SVGID_26_"  style="overflow:visible;"/>
						</clipPath>
						<clipPath id="SVGID_50_" class="st21">
							<use xlink:href="#SVGID_27_"  style="overflow:visible;"/>
						</clipPath>
						<clipPath id="SVGID_51_" class="st22">
							<use xlink:href="#SVGID_28_"  style="overflow:visible;"/>
						</clipPath>
						<clipPath id="SVGID_52_" class="st23">
							<use xlink:href="#SVGID_29_"  style="overflow:visible;"/>
						</clipPath>
						<clipPath id="SVGID_53_" class="st24">
							<use xlink:href="#SVGID_30_"  style="overflow:visible;"/>
						</clipPath>
						<clipPath id="SVGID_54_" class="st25">
							<use xlink:href="#SVGID_31_"  style="overflow:visible;"/>
						</clipPath>
						<path class="st26" d="M45.7,58.8c-0.2-0.1-0.4-0.3-0.6-0.6c-0.1-0.2-0.2-0.6-0.2-0.8c0-0.3,0.1-0.6,0.2-0.8s0.3-0.4,0.6-0.6
							c0.2-0.1,0.4-0.2,0.8-0.2s0.6,0.1,0.8,0.2s0.4,0.3,0.6,0.6c0.1,0.2,0.2,0.6,0.2,0.8c0,0.3-0.1,0.6-0.2,0.8
							c-0.1,0.2-0.3,0.4-0.6,0.6c-0.2,0.1-0.4,0.1-0.8,0.1C46.1,58.9,45.9,58.9,45.7,58.8 M47.1,58.6c0.2-0.1,0.3-0.2,0.4-0.4
							s0.1-0.4,0.1-0.7c0-0.2,0-0.4-0.1-0.7c-0.1-0.2-0.2-0.3-0.4-0.4c-0.2-0.1-0.4-0.1-0.7-0.1s-0.4,0-0.7,0.1
							c-0.2,0.1-0.3,0.2-0.4,0.4c-0.1,0.2-0.1,0.4-0.1,0.7c0,0.2,0,0.4,0.1,0.7c0.1,0.2,0.2,0.3,0.4,0.4s0.4,0.1,0.7,0.1
							S46.9,58.7,47.1,58.6"/>
						<polygon class="st26" points="51.3,56 50.1,59.1 49.7,59.1 48.5,56 48.9,56 50,58.7 51,56 						"/>
						<path class="st26" d="M53.8,58.3h-1.4l-0.2,0.6h-0.2l1.1-2.9h0.3l1.1,2.9h-0.2L53.8,58.3z M53.7,58.1l-0.6-1.7l-0.6,1.7H53.7z
							"/>
						<path class="st26" d="M55.3,56.5c0.1-0.2,0.3-0.4,0.6-0.6c0.2-0.1,0.6-0.2,0.8-0.2c0.3,0,0.7,0.1,0.9,0.2
							c0.2,0.2,0.4,0.4,0.6,0.7h-0.3c-0.1-0.2-0.2-0.3-0.4-0.6c-0.2-0.1-0.4-0.2-0.7-0.2c-0.2,0-0.4,0-0.7,0.1
							c-0.2,0.1-0.3,0.2-0.4,0.4c-0.1,0.2-0.1,0.4-0.1,0.7c0,0.2,0,0.6,0.1,0.7c0.1,0.2,0.2,0.3,0.4,0.4c0.2,0.1,0.4,0.1,0.7,0.1
							c0.2,0,0.4-0.1,0.7-0.2c0.2-0.1,0.3-0.3,0.4-0.6H58c-0.1,0.3-0.3,0.6-0.6,0.7c-0.2,0.8-0.6,0.8-0.9,0.8
							c-0.3,0-0.6-0.1-0.8-0.2s-0.4-0.3-0.6-0.6c-0.1-0.2-0.2-0.6-0.2-0.9C55,57.1,55.1,56.7,55.3,56.5"/>
						<rect x="59" y="56" class="st26" width="0.2" height="3.2"/>
						<path class="st26" d="M60.9,58.8c-0.2-0.1-0.4-0.3-0.6-0.6c-0.1-0.2-0.2-0.6-0.2-0.8s0.1-0.6,0.2-0.8c0.1-0.2,0.3-0.4,0.6-0.6
							c0.2-0.1,0.4-0.2,0.8-0.2c0.3,0,0.6,0.1,0.8,0.2s0.4,0.3,0.6,0.6c0.1,0.2,0.2,0.6,0.2,0.8s-0.1,0.6-0.2,0.8
							c-0.1,0.2-0.3,0.4-0.6,0.6c-0.2,0.1-0.4,0.1-0.8,0.1C61.4,58.9,61.1,58.9,60.9,58.8 M62.3,58.6c0.2-0.1,0.3-0.2,0.4-0.4
							c0.1-0.2,0.1-0.4,0.1-0.7c0-0.2,0-0.4-0.1-0.7c-0.1-0.2-0.2-0.3-0.4-0.4c-0.2-0.1-0.4-0.1-0.7-0.1c-0.2,0-0.4,0-0.7,0.1
							c-0.2,0.1-0.3,0.2-0.4,0.4c-0.1,0.2-0.1,0.4-0.1,0.7c0,0.2,0,0.4,0.1,0.7c0.1,0.2,0.2,0.3,0.4,0.4s0.4,0.1,0.7,0.1
							S62.1,58.7,62.3,58.6 M62.2,55.2l-0.8,0.6v-0.2l0.8-0.6V55.2z"/>
						<polygon class="st26" points="66.4,59.1 66.1,59.1 64.3,56.4 64.3,59.1 64,59.1 64,56 64.4,56 66.2,58.5 66.2,56 66.4,56 
													"/>
						<polygon class="st26" points="70.9,56 70.9,56.2 69.8,56.2 69.8,59.1 69.6,59.1 69.6,56.2 68.7,56.2 68.7,56 						"/>
						<polygon class="st26" points="71.9,56.2 71.9,57.3 73,57.3 73,57.5 71.9,57.5 71.9,58.5 73.2,58.5 73.2,59.1 71.7,59.1 
							71.7,56 73.2,56 73.2,56.2 						"/>
						<path class="st26" d="M74.1,56.5c0.1-0.2,0.3-0.4,0.6-0.6c0.2-0.1,0.6-0.2,0.8-0.2c0.3,0,0.7,0.1,0.9,0.2
							c0.2,0.2,0.4,0.4,0.6,0.7h-0.3c-0.1-0.2-0.2-0.3-0.4-0.6c-0.2-0.1-0.4-0.2-0.7-0.2c-0.2,0-0.4,0-0.7,0.1
							c-0.2,0.1-0.3,0.2-0.4,0.4c-0.1,0.2-0.1,0.4-0.1,0.7c0,0.2,0,0.6,0.1,0.7c0.1,0.2,0.2,0.3,0.4,0.4c0.2,0.1,0.4,0.1,0.7,0.1
							c0.2,0,0.4-0.1,0.7-0.2c0.2-0.1,0.3-0.3,0.4-0.6h0.3c-0.1,0.3-0.3,0.6-0.6,0.7c-0.2,0.8-0.6,0.8-0.9,0.8
							c-0.3,0-0.6-0.1-0.8-0.2c-0.2-0.1-0.4-0.3-0.6-0.6s-0.2-0.6-0.2-0.9C73.9,57.1,74,56.7,74.1,56.5"/>
						<polygon class="st26" points="80.1,59.1 79.9,59.1 78,56.4 78,59.1 77.8,59.1 77.8,56 78.1,56 79.9,58.5 79.9,56 80.1,56 
													"/>
						<path class="st26" d="M81.7,58.8c-0.2-0.1-0.4-0.3-0.6-0.6c-0.1-0.3-0.1-0.6-0.1-0.9c0-0.3,0.1-0.6,0.2-0.8
							c0.1-0.2,0.3-0.4,0.6-0.6c0.2-0.1,0.4-0.2,0.8-0.2s0.6,0.1,0.8,0.2c0.2,0.1,0.4,0.3,0.6,0.6s0.2,0.6,0.2,0.8
							c0,0.3-0.1,0.6-0.2,0.8s-0.3,0.4-0.6,0.6c-0.3,0.2-0.6,0.2-0.9,0.2C82.3,58.9,81.9,58.9,81.7,58.8 M83.2,58.6
							c0.2-0.1,0.3-0.2,0.4-0.4s0.1-0.4,0.1-0.7c0-0.2,0-0.4-0.1-0.7c-0.1-0.2-0.2-0.3-0.4-0.4c-0.2-0.1-0.4-0.1-0.7-0.1
							c-0.2,0-0.4,0-0.7,0.1c-0.2,0.1-0.3,0.2-0.4,0.4c-0.1,0.2-0.1,0.4-0.1,0.7c0,0.2,0,0.4,0.1,0.7c0.1,0.2,0.2,0.3,0.4,0.4
							c0.2,0.1,0.4,0.1,0.7,0.1C82.7,58.7,82.9,58.7,83.2,58.6"/>
						<polygon class="st26" points="85.1,58.8 86.3,58.8 86.3,59.1 84.9,59.1 84.9,56 85.1,56 						"/>
						<path class="st26" d="M87.7,58.8c-0.2-0.1-0.4-0.3-0.6-0.6c-0.1-0.2-0.2-0.6-0.2-0.8s0.1-0.6,0.2-0.8s0.3-0.4,0.6-0.6
							c0.2-0.1,0.4-0.2,0.8-0.2c0.3,0,0.6,0.1,0.8,0.2c0.2,0.1,0.4,0.3,0.6,0.6s0.2,0.6,0.2,0.8s-0.1,0.6-0.2,0.8
							c-0.1,0.2-0.3,0.4-0.6,0.6c-0.2,0.1-0.4,0.1-0.8,0.1C88.2,58.9,87.9,58.9,87.7,58.8 M89.1,58.6c0.2-0.1,0.3-0.2,0.4-0.4
							s0.1-0.4,0.1-0.7c0-0.2,0-0.4-0.1-0.7c-0.1-0.2-0.2-0.3-0.4-0.4c-0.2-0.1-0.4-0.1-0.7-0.1c-0.2,0-0.4,0-0.7,0.1
							c-0.2,0.1-0.3,0.2-0.4,0.4c-0.1,0.2-0.1,0.4-0.1,0.7c0,0.2,0,0.4,0.1,0.7c0.1,0.2,0.2,0.3,0.4,0.4s0.4,0.1,0.7,0.1
							C88.7,58.7,88.9,58.7,89.1,58.6 M88.8,55.2L88,55.7v-0.2l0.8-0.6V55.2z"/>
						<path class="st26" d="M93.4,56.7c-0.1-0.2-0.2-0.3-0.4-0.4c-0.2-0.1-0.4-0.2-0.7-0.2c-0.2,0-0.4,0-0.7,0.1
							c-0.2,0.1-0.3,0.2-0.4,0.4c-0.1,0.2-0.1,0.4-0.1,0.7c0,0.2,0,0.4,0.1,0.7c0.1,0.2,0.2,0.3,0.4,0.4c0.2,0.1,0.3,0.1,0.7,0.1
							c0.2,0,0.4,0,0.6-0.1c0.2-0.1,0.3-0.2,0.4-0.4s0.1-0.3,0.2-0.6h-1.2v-0.2h1.5v0.2c0,0.2-0.1,0.6-0.2,0.8s-0.3,0.4-0.6,0.6
							c-0.2,0.1-0.4,0.2-0.8,0.2c-0.3,0-0.6-0.1-0.8-0.2c-0.2-0.1-0.4-0.3-0.6-0.6c-0.1-0.2-0.2-0.6-0.2-0.8c0-0.3,0.1-0.6,0.2-0.8
							c0.1-0.2,0.3-0.4,0.6-0.6c0.2-0.1,0.4-0.2,0.8-0.2s0.7,0.1,0.9,0.2c0.2,0.1,0.4,0.4,0.6,0.7C93.8,56.7,93.4,56.7,93.4,56.7z"
							/>
						<rect x="94.6" y="56" class="st26" width="0.2" height="3.2"/>
						<path class="st26" d="M96.1,56.5c0.1-0.2,0.3-0.4,0.6-0.6c0.2-0.1,0.6-0.2,0.8-0.2c0.3,0,0.7,0.1,0.9,0.2
							c0.2,0.2,0.4,0.4,0.6,0.7h-0.3c-0.1-0.2-0.2-0.3-0.4-0.6c-0.2-0.1-0.4-0.2-0.7-0.2c-0.2,0-0.4,0-0.7,0.1
							c-0.2,0.1-0.3,0.2-0.4,0.4s-0.1,0.4-0.1,0.7c0,0.2,0,0.6,0.1,0.7c0.1,0.2,0.2,0.3,0.4,0.4c0.2,0.1,0.4,0.1,0.7,0.1
							c0.2,0,0.4-0.1,0.7-0.2c0.2-0.1,0.3-0.3,0.4-0.6h0.3c-0.1,0.3-0.3,0.6-0.6,0.7c-0.2,0.8-0.6,0.8-0.9,0.8
							c-0.3,0-0.6-0.1-0.8-0.2c-0.2-0.1-0.4-0.3-0.6-0.6s-0.2-0.6-0.2-0.9C95.8,57.1,95.8,56.7,96.1,56.5"/>
						<path class="st26" d="M101.5,58.3H100l-0.2,0.6h-0.2l1.1-2.9h0.2l1.1,2.9h-0.2L101.5,58.3z M101.4,58.1l-0.6-1.7l-0.6,1.7
							H101.4z"/>
						<path class="st26" d="M43,21.6c-0.3-0.3-0.7-0.4-1.1-0.4h-3.2c-0.4,0-0.9,0.1-1.2,0.4c-0.2,0.3-0.4,0.7-0.4,1.1v28.1
							c0,0.4,0.1,0.8,0.4,1.1c0.3,0.3,0.7,0.4,1.1,0.4h3.2c0.4,0,0.9-0.1,1.2-0.4c0.2-0.3,0.4-0.7,0.4-1.1V22.5
							C43.5,22.2,43.2,21.8,43,21.6"/>
						<path class="st26" d="M59.4,21.6c-0.3-0.3-0.7-0.4-1.1-0.4h-3.6v-7.9c0-0.3-0.1-0.8-0.3-1c-0.3-0.3-0.7-0.6-1.2-0.6h-3.5
							c-0.3,0-0.8,0.1-1.1,0.3c-0.3,0.3-0.6,0.8-0.6,1.2v7.7h-1.9c-0.4,0-0.8,0.1-1.1,0.4c-0.3,0.3-0.4,0.7-0.4,1.1v3.4
							c0,0.4,0.1,0.8,0.4,1.1c0.3,0.3,0.7,0.4,1.1,0.4H48v16.1c0,3.2,0.9,5.5,2.5,6.8c1.5,1.2,2.6,1.9,4.9,1.9c0.1,0,0.1,0,0.2,0
							h2.2c0.4,0,0.8-0.1,1.1-0.4c0.3-0.3,0.4-0.7,0.4-1.1v-3.8c0-0.4-0.1-0.8-0.4-1.1c-0.3-0.3-0.7-0.4-1.1-0.4h-0.4l0,0l0,0
							c-0.1,0-0.1,0-0.2,0c-0.9,0-1.4-0.2-1.9-0.6c-0.3-0.3-0.7-1-0.7-2.6V27.6h3.6c0.3,0,0.8-0.1,1-0.3c0.3-0.3,0.6-0.7,0.6-1.2
							v-3.8c0-0.4-0.1-0.8-0.4-1.1"/>
						<path class="st26" d="M74.7,22.3c0-0.3-0.1-0.8-0.4-1.1c-0.3-0.3-0.7-0.6-1.1-0.6H73l0,0c-0.1,0-10.3,0-10.6,0
							c-0.4,0-0.8,0.2-1.1,0.4c-0.2,0.3-0.4,0.8-0.4,1.1v3.9c0,0.9,0.7,1.4,1.5,1.4h0.2h5.1v23.1c0,0.4,0.1,0.8,0.4,1.1
							s0.7,0.4,1.1,0.4H73c0.4,0,0.8-0.1,1.1-0.4c0.4-0.4,0.4-0.9,0.4-1.3C74.7,50.2,74.7,24.5,74.7,22.3"/>
						<path class="st26" d="M98.5,24.8C96.1,22.2,92.9,21,89,21c-3.9,0-7.1,1.2-9.5,3.8C77,27.4,76,30,76,33.8v4.9
							c0,4,1.2,7.3,3.5,9.8c2.4,2.5,5.5,3.8,9.5,3.8c4,0,7.2-1.2,9.5-3.8c2.4-2.5,3.6-5.7,3.6-9.8v-4.9C102,30,101,27.4,98.5,24.8
							 M82.5,34.3c0-2.4,0.3-3.3,1.5-4.7c1.1-1.4,2.9-2.1,4.9-2.1s4,0.7,5.1,2.1c1.2,1.5,1.5,2.3,1.5,4.9v3.3c0,2.4-0.3,4.4-1.5,5.8
							s-3.1,2.1-5.1,2.1c-2,0-3.6-0.7-4.9-2.1c-1.2-1.4-1.5-3.4-1.5-5.8V34.3z"/>
						<path class="st26" d="M43.7,11.5c-0.9-0.9-2.1-1.3-3.4-1.3c-1.4,0-2.5,0.4-3.5,1.3c-0.9,0.9-1.3,2.1-1.3,3.5
							c0,1.4,0.4,2.5,1.3,3.5c0.9,0.9,2.1,1.3,3.5,1.3c1.3,0,2.5-0.4,3.4-1.3c0.9-0.9,1.3-2.1,1.3-3.5
							C45.1,13.6,44.6,12.4,43.7,11.5"/>
					</g>
				</g>
			</g>
		</g>
	</g>
</g>
</svg>
