<?xml version="1.0" encoding="utf-8"?>
<!-- Generator: Adobe Illustrator 21.1.0, SVG Export Plug-In . SVG Version: 6.00 Build 0)  -->
<svg version="1.1" id="Capa_1" xmlns="http://www.w3.org/2000/svg" xmlns:xlink="http://www.w3.org/1999/xlink" x="0px" y="0px"
	 viewBox="0 0 135 68" style="enable-background:new 0 0 135 68;" xml:space="preserve">
<style type="text/css">
	.st0{fill:#80C2E2;}
	.st1{fill:#FFFFFF;}
</style>
<g id="Capa_2">
</g>
<g id="Capa_1_1_">
	<g id="Layer1009_9_">
		<g id="Layer1010_9_">
			<path id="path147_9_" class="st0" d="M63.2,10.9c0,0,31.6-4.4,42.5,0.5s6.6,23.1,6.6,25.6c0.1-2.4,1.8-17-9.1-22
				C92.2,10.1,63.2,10.9,63.2,10.9z"/>
			<path id="path149_9_" class="st0" d="M81.8,44.4c10.6,11.9,18.5,17.2,24.8,11.6c5.7-5,3.7-26.6,3.7-26.6s-1,19.7-6.3,23.1
				C98.1,56.2,92.9,53.4,81.8,44.4z"/>
		</g>
		<g id="Layer1011_9_">
			<path id="path152_9_" class="st1" d="M23.6,38.9c0,0.9,0.3,1.7,0.8,2.3s1.2,0.9,2,0.9c0.6,0,1.2-0.3,1.7-0.7
				c0.5-0.5,0.7-1,0.8-1.7h0.4c-0.1,0.8-0.4,1.5-0.9,2s-1.2,0.8-1.9,0.8c-1,0-1.7-0.3-2.3-1c-0.6-0.7-0.9-1.5-0.9-2.5
				s0.3-1.9,0.9-2.6c0.6-0.7,1.3-1,2.3-1c0.7,0,1.3,0.2,1.8,0.5c0.5,0.4,0.8,0.9,0.9,1.6h-0.4c-0.1-0.5-0.4-1-0.8-1.3
				s-0.9-0.5-1.5-0.5c-0.8,0-1.5,0.3-2,0.9C23.8,37.2,23.6,38,23.6,38.9z"/>
			<path id="path154_9_" class="st1" d="M38.5,38.9c0,1-0.3,1.9-0.9,2.5c-0.6,0.6-1.4,1-2.3,1s-1.7-0.3-2.3-1
				c-0.6-0.6-0.9-1.5-0.9-2.5s0.3-1.9,0.9-2.5c0.6-0.6,1.4-1,2.3-1c1,0,1.7,0.3,2.3,1S38.5,37.9,38.5,38.9z M38.1,38.9
				c0-0.9-0.3-1.7-0.8-2.3s-1.2-0.9-2-0.9s-1.5,0.3-2,0.9c-0.5,0.6-0.8,1.3-0.8,2.3c0,0.9,0.3,1.7,0.8,2.3s1.2,0.9,2,0.9
				s1.5-0.3,2-0.9S38.1,39.9,38.1,38.9z"/>
			<path id="path156_9_" class="st1" d="M47.8,38.9c0,1-0.3,1.9-0.9,2.5c-0.6,0.6-1.4,1-2.3,1s-1.7-0.3-2.3-1
				c-0.6-0.6-0.9-1.5-0.9-2.5s0.3-1.9,0.9-2.5c0.6-0.6,1.4-1,2.3-1s1.7,0.3,2.3,1C47.5,37,47.8,37.9,47.8,38.9z M47.4,38.9
				c0-0.9-0.3-1.7-0.8-2.3s-1.2-0.9-2-0.9s-1.5,0.3-2,0.9c-0.5,0.6-0.8,1.3-0.8,2.3c0,0.9,0.3,1.7,0.8,2.3s1.2,0.9,2,0.9
				s1.5-0.3,2-0.9C47.1,40.6,47.4,39.9,47.4,38.9z"/>
			<path id="path158_9_" class="st1" d="M51.4,39.3v3H51v-6.7h2.8c1.3,0,2,0.6,2,1.9c0,0.6-0.2,1-0.5,1.4c-0.4,0.3-0.9,0.5-1.5,0.5
				C53.8,39.3,51.4,39.3,51.4,39.3z M51.4,38.9h2.4c0.5,0,0.9-0.1,1.2-0.4c0.3-0.3,0.4-0.6,0.4-1.1s-0.1-0.9-0.4-1.2
				c-0.3-0.3-0.7-0.4-1.2-0.4h-2.4V38.9L51.4,38.9z"/>
			<path id="path160_9_" class="st1" d="M63.4,42.3h-4.6v-6.7h4.6V36h-4.1v2.7h3.9v0.4h-3.9v3h4.2L63.4,42.3L63.4,42.3z"/>
			<path id="path162_9_" class="st1" d="M66.8,39.2v3.1h-0.4v-6.7h2.8c0.7,0,1.2,0.1,1.6,0.4c0.4,0.3,0.5,0.7,0.5,1.3
				c0,0.4-0.1,0.8-0.4,1.1s-0.6,0.5-1.2,0.6c0.5,0.1,0.9,0.3,1.1,0.6s0.3,0.7,0.3,1.3c0,0.5,0,0.8,0.1,1c0,0.1,0.1,0.3,0.2,0.4h-0.5
				c-0.1-0.1-0.1-0.3-0.1-0.4c0-0.2,0-0.5,0-1.1c0-0.5-0.1-0.9-0.4-1.2s-0.7-0.4-1.3-0.4L66.8,39.2L66.8,39.2z M66.8,38.9h2.4
				c0.5,0,1-0.1,1.3-0.4c0.3-0.3,0.5-0.6,0.5-1.1c0-0.4-0.2-0.8-0.5-1c-0.3-0.3-0.7-0.4-1.3-0.4h-2.4V38.9z"/>
			<path id="path164_9_" class="st1" d="M79.8,42.3h-0.4l-0.9-2.2h-3.2l-0.9,2.2H74l2.7-6.7h0.5L79.8,42.3z M78.3,39.8l-1.5-3.9
				l-1.5,3.9H78.3z"/>
			<path id="path166_9_" class="st1" d="M84.6,42.3h-0.4v-6.4h-2.4v-0.4H87v0.4h-2.4V42.3L84.6,42.3z"/>
			<path id="path168_9_" class="st1" d="M90.1,42.3h-0.4v-6.7h0.4V42.3z"/>
			<path id="path170_9_" class="st1" d="M97.9,35.5h0.4l-2.5,6.7h-0.5l-2.5-6.7h0.4l2.3,6.4L97.9,35.5z"/>
			<path id="path172_9_" class="st1" d="M106.2,42.3h-0.4l-0.9-2.2h-3.2l-0.9,2.2h-0.4l2.7-6.7h0.5L106.2,42.3z M104.8,39.8
				l-1.5-3.9l-1.5,3.9H104.8z"/>
		</g>
		<path id="path175_9_" class="st1" d="M23.9,19.8h2.4v12.4h-2.4V19.8z"/>
		<path id="path177_9_" class="st1" d="M29.7,19.8h2.4l4.6,8.3l0,0v-8.3H39v12.4h-2.4L32,23.9l0,0v8.3h-2.3V19.8L29.7,19.8z"/>
		<path id="path179_9_" class="st1" d="M49.9,30.8c-0.4,0.6-0.9,1-1.4,1.3s-1.1,0.4-1.6,0.4c-0.8,0-1.6-0.2-2.3-0.5
			s-1.3-0.8-1.7-1.4c-0.5-0.6-0.8-1.3-1.1-2.1c-0.3-0.8-0.4-1.6-0.4-2.5s0.1-1.8,0.4-2.6c0.3-0.8,0.6-1.5,1.1-2.1s1-1,1.7-1.4
			c0.7-0.3,1.4-0.5,2.3-0.5c0.5,0,1.1,0.1,1.7,0.3c0.5,0.2,1,0.5,1.4,0.8c0.4,0.4,0.8,0.8,1,1.4c0.3,0.5,0.4,1.2,0.5,1.8h-2.3
			c-0.1-0.7-0.4-1.2-0.8-1.5c-0.4-0.4-0.9-0.5-1.5-0.5c-0.5,0-1,0.1-1.4,0.4s-0.7,0.5-0.9,0.9s-0.4,0.8-0.5,1.3s-0.2,1-0.2,1.6
			c0,0.5,0.1,1,0.2,1.5c0.1,0.5,0.3,0.9,0.5,1.3c0.3,0.4,0.5,0.7,0.9,0.9c0.4,0.3,0.8,0.3,1.3,0.3c0.8,0,1.4-0.3,1.8-0.7
			c0.4-0.5,0.7-1.1,0.8-2H47v-2h4.7v6.7h-1.5L49.9,30.8z"/>
		<path id="path181_9_" class="st1" d="M54.8,19.8h8.3v2.3h-5.8v2.6h5.3v2.1h-5.3v3h5.9v2.3h-8.4L54.8,19.8L54.8,19.8z"/>
		<path id="path183_9_" class="st1" d="M66,19.8h2.4l4.6,8.3l0,0v-8.3h2.3v12.4h-2.4l-4.6-8.3l0,0v8.3H66V19.8L66,19.8z"/>
		<path id="path185_9_" class="st1" d="M78.6,19.8H81v12.4h-2.4V19.8z"/>
		<path id="path187_9_" class="st1" d="M87.4,19.8h2.5L94,32.2h-2.5l-0.8-2.8h-4.1l-0.9,2.8h-2.4L87.4,19.8z M87.1,27.4H90l-1.4-4.5
			l0,0L87.1,27.4z"/>
		<path id="path189_9_" class="st1" d="M96.2,19.8h5.9c0.5,0,0.9,0.1,1.3,0.3c0.4,0.2,0.7,0.4,1,0.7c0.3,0.3,0.5,0.7,0.6,1.1
			s0.3,0.9,0.3,1.3c0,0.7-0.1,1.4-0.4,1.9s-0.7,0.9-1.3,1.2v0.1c0.5,0.2,0.9,0.5,1.2,1c0.3,0.5,0.4,1.2,0.4,1.9c0,0.1,0,0.2,0,0.4
			c0,0.6,0.1,1.1,0.1,1.5c0.1,0.4,0.2,0.7,0.3,1h-2.4c-0.1-0.3-0.2-0.5-0.2-0.8c-0.1-0.3-0.1-0.7-0.1-1.2c0-0.4-0.1-0.8-0.1-1
			c-0.1-0.7-0.3-1.2-0.5-1.4c-0.3-0.3-0.7-0.4-1.3-0.4h-2.4v4.8h-2.4V19.8L96.2,19.8L96.2,19.8z M98.6,25.4h2.7c0.5,0,1-0.1,1.3-0.4
			s0.4-0.7,0.4-1.3c0-0.6-0.1-1-0.4-1.3s-0.7-0.4-1.3-0.4h-2.6L98.6,25.4L98.6,25.4z"/>
	</g>
</g>
</svg>
