<?xml version="1.0" encoding="utf-8"?>
<!-- Generator: Adobe Illustrator 21.1.0, SVG Export Plug-In . SVG Version: 6.00 Build 0)  -->
<svg version="1.1" id="Capa_1" xmlns="http://www.w3.org/2000/svg" xmlns:xlink="http://www.w3.org/1999/xlink" x="0px" y="0px"
	 viewBox="0 0 135 68" style="enable-background:new 0 0 135 68;" xml:space="preserve">
<style type="text/css">
	.st0{fill:#FFFFFF;}
	.st1{fill:none;}
</style>
<g id="Capa_2">
</g>
<g>
	<path class="st0" d="M60.5,29.3h1.9v9.9c0,0.5-0.1,0.8-0.3,1.1c-0.2,0.3-0.6,0.4-1.2,0.4h-3.4c-1.4,0-2.3-0.6-2.8-1.7
		c-0.3-0.7-0.4-1.6-0.4-2.7c0-1.3,0.2-2.3,0.7-2.9c0.6-0.9,1.6-1.3,2.9-1.3h2.6V29.3z M60.5,33.6h-2.2c-0.8,0-1.3,0.3-1.6,0.8
		c-0.3,0.4-0.4,1.1-0.4,2c0,0.9,0.1,1.6,0.2,1.9c0.3,0.7,0.9,1,1.8,1h1.5c0.3,0,0.4,0,0.5-0.1c0.1-0.1,0.1-0.3,0.1-0.6V33.6z"/>
	<path class="st0" d="M71.6,40.8h-4.8c-1.3,0-2.1-0.4-2.7-1.1c-0.4-0.6-0.6-1.6-0.6-3.2c0-0.9,0.1-1.7,0.2-2.1
		c0.1-0.6,0.4-1.2,0.9-1.5c0.6-0.5,1.7-0.8,3.2-0.8c1.3,0,2.3,0.2,2.9,0.6c0.8,0.5,1.2,1.4,1.2,2.8c0,0.6-0.1,1-0.4,1.3
		c-0.2,0.2-0.5,0.3-0.9,0.3h-5c0,0.5,0,0.9,0.1,1.2c0.2,0.7,0.8,1,1.8,1h4.2V40.8z M65.5,35.6h4c0.3,0,0.4-0.2,0.4-0.5
		c0-0.5-0.2-0.9-0.5-1.1c-0.4-0.3-0.9-0.4-1.7-0.4c-0.9,0-1.5,0.2-1.8,0.6C65.6,34.4,65.5,34.9,65.5,35.6"/>
	<rect x="72.9" y="29.3" class="st0" width="1.9" height="11.5"/>
	<path class="st0" d="M34.5,30.4h-4.2c-1.1,0-2-0.4-2.6-1.1c-0.5-0.6-0.8-1.7-0.8-3.2c0-1.7,0.3-2.9,1-3.5c0.6-0.6,1.5-0.9,2.7-0.9
		h3.7v1.5h-3.1c-1.2,0-1.9,0.5-2.1,1.4C29,25,29,25.5,29,26.3c0,0.8,0.1,1.4,0.3,1.8c0.3,0.6,1,0.9,2.2,0.9h3.1V30.4z"/>
	<path class="st0" d="M40,21.7c1.7,0,2.8,0.3,3.5,0.9c0.7,0.7,1.1,1.8,1.1,3.5c0,1.7-0.4,2.8-1.1,3.5c-0.7,0.6-1.8,0.9-3.5,0.9
		c-1.7,0-2.8-0.3-3.5-0.9c-0.7-0.7-1.1-1.8-1.1-3.5c0-1.7,0.4-2.9,1.1-3.6C37.2,22,38.3,21.7,40,21.7 M37.4,26.1
		c0,1.1,0.2,1.8,0.6,2.2c0.4,0.5,1.1,0.7,2.1,0.7c0.9,0,1.6-0.2,2.1-0.7c0.4-0.4,0.6-1.2,0.6-2.2c0-1.1-0.2-1.9-0.6-2.3
		c-0.4-0.5-1.1-0.7-2.1-0.7c-1,0-1.7,0.2-2.1,0.7C37.6,24.2,37.4,25,37.4,26.1"/>
	<path class="st0" d="M45.7,30.4v-7.3c0-0.4,0.1-0.7,0.3-0.9c0.2-0.3,0.7-0.4,1.3-0.4h3.1c1.1,0,1.9,0.2,2.4,0.7
		c0.6,0.5,0.9,1.3,0.9,2.3v5.7h-1.9v-5.1c0-0.7-0.1-1.2-0.4-1.5c-0.3-0.3-0.7-0.5-1.4-0.5H48c-0.2,0-0.3,0-0.3,0.1
		c-0.1,0.1-0.1,0.2-0.1,0.4v6.7H45.7z"/>
	<path class="st0" d="M54.8,30.4V29h4.9c0.3,0,0.5-0.1,0.6-0.2c0.1-0.1,0.2-0.3,0.2-0.5c0-0.3-0.1-0.5-0.2-0.7
		c-0.1-0.1-0.7-0.3-1.6-0.6L57,26.5c-0.9-0.3-1.6-0.6-1.9-1c-0.3-0.4-0.4-0.9-0.4-1.5c0-0.6,0.1-1.1,0.4-1.5
		c0.4-0.5,1.1-0.8,2.1-0.8h4.9v1.5h-4.6c-0.3,0-0.5,0.1-0.7,0.2c-0.2,0.1-0.2,0.3-0.2,0.6c0,0.3,0.1,0.5,0.3,0.7
		c0.2,0.1,0.5,0.3,1.1,0.4l1.9,0.5c1.1,0.3,1.8,0.6,2.2,1c0.3,0.4,0.5,0.9,0.5,1.6c0,0.9-0.2,1.5-0.7,1.8c-0.3,0.2-0.8,0.4-1.4,0.4
		H54.8z"/>
	<path class="st0" d="M71.6,28.9c0,0.6-0.2,1-0.5,1.2c-0.3,0.2-0.7,0.3-1.4,0.3h-3.1c-1,0-1.8-0.2-2.3-0.7c-0.6-0.5-0.9-1.4-0.9-2.6
		v-5.5h1.9v5.1c0,0.7,0.1,1.2,0.3,1.5c0.3,0.4,0.8,0.6,1.6,0.6H69c0.3,0,0.4-0.1,0.5-0.2c0.1-0.1,0.2-0.3,0.2-0.5v-6.5h1.9V28.9z"/>
	<rect x="72.9" y="19" class="st0" width="1.9" height="11.5"/>
	<path class="st0" d="M81.1,30.4h-1.2c-1,0-1.8-0.2-2.3-0.6c-0.6-0.5-0.9-1.2-0.9-2.2v-4.4h-1.2v-1.5h1.2V19h1.9v2.8H81v1.5h-2.4
		v3.5c0,0.5,0,0.8,0,1c0.1,0.4,0.2,0.7,0.5,0.9c0.3,0.3,0.8,0.4,1.5,0.4h0.5V30.4z"/>
	<path class="st0" d="M86.1,21.7c1.7,0,2.8,0.3,3.5,0.9c0.7,0.7,1.1,1.8,1.1,3.5c0,1.7-0.4,2.8-1.1,3.5c-0.7,0.6-1.8,0.9-3.5,0.9
		c-1.7,0-2.8-0.3-3.5-0.9c-0.7-0.7-1.1-1.8-1.1-3.5c0-1.7,0.4-2.9,1.1-3.6C83.3,22,84.4,21.7,86.1,21.7 M83.5,26.1
		c0,1.1,0.2,1.8,0.6,2.2c0.4,0.5,1.1,0.7,2.1,0.7c0.9,0,1.6-0.2,2.1-0.7c0.4-0.4,0.6-1.2,0.6-2.2c0-1.1-0.2-1.9-0.6-2.3
		c-0.4-0.5-1.1-0.7-2.1-0.7c-1,0-1.7,0.2-2.1,0.7C83.7,24.2,83.5,25,83.5,26.1"/>
	<path class="st0" d="M91.8,30.4V25c0-1.2,0.3-2,0.9-2.5c0.6-0.5,1.5-0.8,2.6-0.8h1.3v1.5h-0.8c-0.8,0-1.3,0.2-1.6,0.6
		c-0.3,0.3-0.4,0.9-0.4,1.7v4.9H91.8z"/>
	<path class="st0" d="M97.7,21.8h4.9c1.6,0,2.4,0.9,2.4,2.7V29c0,0.5-0.1,0.9-0.3,1.1c-0.2,0.2-0.6,0.3-1.2,0.3h-4.1
		c-0.7,0-1.2-0.1-1.6-0.4c-0.5-0.4-0.8-1.2-0.8-2.4c0-1,0.2-1.7,0.7-2.1c0.4-0.3,0.9-0.5,1.6-0.5h3.8v-0.6c0-0.3-0.1-0.6-0.2-0.8
		c-0.2-0.2-0.5-0.4-0.9-0.4h-4.3V21.8z M103.1,26.5h-3.2c-0.3,0-0.5,0.1-0.7,0.3C99.1,27,99,27.3,99,27.7c0,0.5,0.1,0.8,0.3,1
		c0.2,0.2,0.4,0.3,0.6,0.3h2.7c0.2,0,0.4,0,0.4-0.1c0.1-0.1,0.1-0.2,0.1-0.4V26.5z"/>
	<path class="st0" d="M76.6,48v-2.6h8.7c0.5,0,0.9-0.1,1.1-0.4c0.2-0.2,0.3-0.5,0.3-1c0-0.5-0.1-0.9-0.4-1.2c-0.2-0.2-1.2-0.5-2.8-1
		l-3-0.8c-1.7-0.5-2.8-1.1-3.4-1.9c-0.5-0.7-0.7-1.6-0.7-2.6c0-1.1,0.2-2,0.7-2.6c0.6-0.9,1.9-1.3,3.7-1.3h8.7v2.6h-8.2
		c-0.5,0-1,0.1-1.2,0.3c-0.3,0.2-0.4,0.6-0.4,1.1c0,0.5,0.2,0.9,0.5,1.2c0.3,0.3,1,0.5,1.9,0.8l3.3,0.9c2,0.6,3.3,1.2,3.9,1.8
		c0.6,0.7,0.9,1.6,0.9,2.8c0,1.5-0.4,2.6-1.3,3.3c-0.6,0.4-1.4,0.6-2.5,0.6H76.6z"/>
	<rect x="105.9" y="40" class="st0" width="5.4" height="1.4"/>
	<g>
		<rect x="107.9" y="40" class="st0" width="3.3" height="1.4"/>
		<path class="st0" d="M116.2,43v-0.1h1.3c1.2,0,2-1.1,2.5-2.1c0.4-0.8,0.6-2,0.6-3.5c0-1.5-0.2-2.7-0.7-3.4c-0.6-1-1.6-1.4-3-1.4
			h-6.7c-0.7,0-1.3,0.2-1.7,0.6c-0.4,0.4-0.6,1.1-0.6,2v3.7h3.3v-2.5c0-0.4,0.1-0.7,0.3-0.9c0.2-0.2,0.4-0.3,0.7-0.3h3.6
			c0.7,0,0.9,0.2,1.1,0.5c0.3,0.4,0.5,0.8,0.5,1.8c0,1.1-0.1,1.8-0.3,2.2c-0.3,0.5-0.8,0.7-1.5,0.7h-2.5c-0.8,0-1.2,0.4-1.2,1.1v0.4
			c0,0.4,0.2,0.8,0.7,1.3l4.6,5.1h3.5L116.2,43z"/>
		<rect x="107.9" y="42.8" class="st0" width="3.3" height="5.2"/>
	</g>
	<rect x="91.5" y="40" class="st0" width="10.9" height="1.4"/>
	<path class="st1" d="M95.5,44.4c0.5,0.7,1.4,1,2.8,1h2.8c0.4,0,0.8-0.1,1-0.3c0.2-0.2,0.3-0.5,0.3-1v-1.3H95
		C95.1,43.5,95.3,44,95.5,44.4z"/>
	<rect x="95" y="40" class="st1" width="7.5" height="1.4"/>
	<polygon class="st0" points="91.5,40 91.5,40 91.5,40 91.5,41.4 91.5,41.4 91.5,41.4 95,41.4 95,40 	"/>
	<polygon class="st0" points="91.5,32.5 91.5,38.7 91.5,38.7 91.5,38.7 95,38.7 95,32.5 	"/>
	<path class="st0" d="M102.4,32.5v6.2h0V40h0v1.4h0v1.4h0v1.3c0,0.4-0.1,0.7-0.3,1c-0.2,0.2-0.5,0.3-1,0.3h-2.8
		c-1.4,0-2.3-0.3-2.8-1c-0.3-0.4-0.4-0.9-0.5-1.6h-3.5c0.1,1.8,0.6,3.2,1.5,4c0.9,0.8,2.2,1.2,4,1.2h5.5c1.2,0,2-0.2,2.4-0.6
		c0.5-0.4,0.8-1.2,0.8-2.2V32.5H102.4z"/>
	<path class="st0" d="M13.5,48v-0.5h1.8c0.2,0,0.3-0.1,0.3-0.4c0-0.2-0.1-0.3-0.3-0.4L14,46.2c-0.2-0.1-0.3-0.1-0.4-0.3
		c-0.1-0.1-0.2-0.4-0.2-0.7c0-0.3,0.1-0.5,0.2-0.7c0.1-0.1,0.3-0.2,0.5-0.2H16V45h-1.6c-0.1,0-0.2,0-0.3,0.1
		c-0.1,0.1-0.1,0.1-0.1,0.3c0,0.2,0.1,0.3,0.3,0.4l1.2,0.4c0.2,0.1,0.4,0.2,0.5,0.3c0.1,0.1,0.2,0.4,0.2,0.7c0,0.3-0.1,0.5-0.2,0.7
		c-0.1,0.2-0.3,0.3-0.6,0.3H13.5z"/>
	<path class="st0" d="M18.7,48h-1.3c-0.3,0-0.6-0.1-0.7-0.3c-0.1-0.2-0.2-0.5-0.2-1c0-0.3,0-0.5,0-0.7c0-0.2,0.1-0.4,0.2-0.5
		c0.2-0.2,0.5-0.3,0.9-0.3c0.4,0,0.6,0.1,0.8,0.2c0.2,0.2,0.3,0.4,0.3,0.9c0,0.2,0,0.3-0.1,0.4c-0.1,0.1-0.1,0.1-0.3,0.1H17
		c0,0.2,0,0.3,0,0.4c0,0.2,0.2,0.3,0.5,0.3h1.2V48z M17,46.4h1.1c0.1,0,0.1-0.1,0.1-0.2c0-0.2-0.1-0.3-0.2-0.4
		c-0.1-0.1-0.3-0.1-0.5-0.1c-0.2,0-0.4,0.1-0.5,0.2C17,46,17,46.1,17,46.4"/>
	<path class="st0" d="M19.1,48v-1.7c0-0.4,0.1-0.6,0.2-0.8c0.2-0.2,0.4-0.2,0.7-0.2h0.4v0.5h-0.2c-0.2,0-0.4,0.1-0.5,0.2
		c-0.1,0.1-0.1,0.3-0.1,0.5V48H19.1z"/>
	<path class="st0" d="M20.8,45.3l0.7,2c0,0.1,0,0.1,0.1,0.1c0,0,0,0,0.1-0.1l0.7-2h0.6L22,47.8c-0.1,0.2-0.2,0.2-0.4,0.2
		c-0.2,0-0.3-0.1-0.4-0.2l-0.9-2.5H20.8z"/>
	<path class="st0" d="M23.5,44.9H23v-0.5h0.5V44.9z M23,45.3h0.5V48H23V45.3z"/>
	<path class="st0" d="M25.9,48h-1.2c-0.3,0-0.6-0.1-0.7-0.3c-0.1-0.2-0.2-0.5-0.2-1c0-0.5,0.1-0.9,0.3-1.1c0.2-0.2,0.4-0.3,0.7-0.3
		h1v0.5H25c-0.3,0-0.5,0.1-0.6,0.4c0,0.1,0,0.3,0,0.5c0,0.3,0,0.4,0.1,0.6c0.1,0.2,0.3,0.3,0.6,0.3h0.9V48z"/>
	<path class="st0" d="M26.7,44.9h-0.5v-0.5h0.5V44.9z M26.2,45.3h0.5V48h-0.5V45.3z"/>
	<path class="st0" d="M28.3,45.2c0.5,0,0.8,0.1,1,0.3c0.2,0.2,0.3,0.6,0.3,1.1c0,0.5-0.1,0.9-0.3,1.1c-0.2,0.2-0.5,0.3-1,0.3
		c-0.5,0-0.8-0.1-1-0.3c-0.2-0.2-0.3-0.6-0.3-1.1c0-0.5,0.1-0.9,0.3-1.1C27.5,45.3,27.8,45.2,28.3,45.2 M27.6,46.6
		c0,0.3,0.1,0.6,0.2,0.7c0.1,0.1,0.3,0.2,0.6,0.2c0.3,0,0.5-0.1,0.6-0.2C29,47.2,29,47,29,46.6c0-0.3-0.1-0.6-0.2-0.7
		c-0.1-0.1-0.3-0.2-0.6-0.2c-0.3,0-0.5,0.1-0.6,0.2C27.6,46,27.6,46.3,27.6,46.6"/>
	<rect x="31" y="44.4" class="st0" width="0.6" height="3.5"/>
	<path class="st0" d="M32.1,48v-2.3c0-0.1,0-0.2,0.1-0.3c0.1-0.1,0.2-0.1,0.4-0.1h0.9c0.3,0,0.5,0.1,0.7,0.2
		c0.2,0.2,0.2,0.4,0.2,0.7V48h-0.5v-1.6c0-0.2,0-0.4-0.1-0.5c-0.1-0.1-0.2-0.2-0.4-0.2h-0.5c0,0-0.1,0-0.1,0c0,0,0,0.1,0,0.1V48
		H32.1z"/>
	<path class="st0" d="M36,48h-0.3c-0.3,0-0.5-0.1-0.6-0.2c-0.2-0.1-0.2-0.4-0.2-0.7v-1.4h-0.3v-0.5h0.3v-0.9h0.5v0.9H36v0.5h-0.7
		v1.1c0,0.1,0,0.2,0,0.3c0,0.1,0.1,0.2,0.1,0.3c0.1,0.1,0.2,0.1,0.4,0.1H36V48z"/>
	<path class="st0" d="M38.4,48h-1.3c-0.3,0-0.6-0.1-0.7-0.3c-0.1-0.2-0.2-0.5-0.2-1c0-0.3,0-0.5,0-0.7c0-0.2,0.1-0.4,0.2-0.5
		c0.2-0.2,0.5-0.3,0.9-0.3c0.4,0,0.6,0.1,0.8,0.2c0.2,0.2,0.3,0.4,0.3,0.9c0,0.2,0,0.3-0.1,0.4c-0.1,0.1-0.1,0.1-0.3,0.1h-1.4
		c0,0.2,0,0.3,0,0.4c0,0.2,0.2,0.3,0.5,0.3h1.2V48z M36.7,46.4h1.1c0.1,0,0.1-0.1,0.1-0.2c0-0.2-0.1-0.3-0.2-0.4
		c-0.1-0.1-0.3-0.1-0.5-0.1c-0.2,0-0.4,0.1-0.5,0.2C36.8,46,36.7,46.1,36.7,46.4"/>
	<path class="st0" d="M38.9,48.8v-0.5h1c0.2,0,0.4,0,0.4-0.1c0.1-0.1,0.1-0.2,0.1-0.3h-0.9c-0.4,0-0.6-0.1-0.7-0.3
		c-0.1-0.2-0.2-0.6-0.2-1c0-0.5,0.1-0.8,0.3-1c0.2-0.2,0.4-0.3,0.7-0.3h0.8c0.2,0,0.3,0,0.4,0.1c0.1,0.1,0.1,0.2,0.1,0.4v1.9
		c0,0.4-0.1,0.7-0.2,0.9c-0.2,0.2-0.4,0.3-0.8,0.3H38.9z M40.5,47.5l0-1.6c0-0.1,0-0.1-0.1-0.2c0,0-0.1,0-0.1,0h-0.5
		c-0.2,0-0.3,0.1-0.4,0.2c-0.1,0.1-0.1,0.4-0.1,0.7c0,0.4,0,0.6,0.1,0.7c0.1,0.1,0.2,0.2,0.5,0.2H40.5z"/>
	<path class="st0" d="M41.4,48v-1.7c0-0.4,0.1-0.6,0.2-0.8c0.2-0.2,0.4-0.2,0.7-0.2h0.4v0.5h-0.2c-0.2,0-0.4,0.1-0.5,0.2
		c-0.1,0.1-0.1,0.3-0.1,0.5V48H41.4z"/>
	<path class="st0" d="M43,45.3h1.4c0.5,0,0.7,0.3,0.7,0.8v1.4c0,0.2,0,0.3-0.1,0.3c-0.1,0.1-0.2,0.1-0.3,0.1h-1.2
		c-0.2,0-0.3,0-0.4-0.1c-0.1-0.1-0.2-0.4-0.2-0.7c0-0.3,0.1-0.5,0.2-0.7c0.1-0.1,0.3-0.2,0.4-0.2h1v-0.2c0-0.1,0-0.2-0.1-0.3
		c-0.1-0.1-0.1-0.1-0.3-0.1H43V45.3z M44.5,46.7h-0.9c-0.1,0-0.2,0-0.2,0.1c0,0.1-0.1,0.2-0.1,0.3c0,0.1,0,0.2,0.1,0.3
		c0,0.1,0.1,0.1,0.2,0.1h0.7c0.1,0,0.1,0,0.1,0c0,0,0-0.1,0-0.1V46.7z"/>
	<rect x="45.4" y="44.4" class="st0" width="0.5" height="3.5"/>
	<path class="st0" d="M47.1,48l1.2-3.2c0.1-0.2,0.1-0.3,0.2-0.3c0.1-0.1,0.2-0.1,0.3-0.1c0.1,0,0.2,0,0.3,0.1
		c0.1,0.1,0.1,0.2,0.2,0.3l1.2,3.2h-0.6l-0.3-0.9H48L47.7,48H47.1z M48.7,45.1l-0.5,1.4h1.2l-0.5-1.4c0-0.1-0.1-0.1-0.1-0.1
		C48.8,45,48.8,45.1,48.7,45.1"/>
	<path class="st0" d="M50.7,48.8v-0.5h1c0.2,0,0.4,0,0.4-0.1c0.1-0.1,0.1-0.2,0.1-0.3h-0.9c-0.4,0-0.6-0.1-0.7-0.3
		c-0.1-0.2-0.2-0.6-0.2-1c0-0.5,0.1-0.8,0.3-1c0.2-0.2,0.4-0.3,0.7-0.3h0.8c0.2,0,0.3,0,0.4,0.1c0.1,0.1,0.1,0.2,0.1,0.4v1.9
		c0,0.4-0.1,0.7-0.2,0.9c-0.2,0.2-0.4,0.3-0.8,0.3H50.7z M52.3,47.5v-1.6c0-0.1,0-0.1-0.1-0.2c0,0-0.1,0-0.1,0h-0.5
		c-0.2,0-0.3,0.1-0.4,0.2c-0.1,0.1-0.1,0.4-0.1,0.7c0,0.4,0,0.6,0.1,0.7c0.1,0.1,0.2,0.2,0.5,0.2H52.3z"/>
	<path class="st0" d="M53.2,48v-1.7c0-0.4,0.1-0.6,0.2-0.8c0.2-0.2,0.4-0.2,0.7-0.2h0.4v0.5h-0.2c-0.2,0-0.4,0.1-0.5,0.2
		c-0.1,0.1-0.1,0.3-0.1,0.5V48H53.2z"/>
	<path class="st0" d="M55.9,45.2c0.5,0,0.8,0.1,1,0.3c0.2,0.2,0.3,0.6,0.3,1.1c0,0.5-0.1,0.9-0.3,1.1c-0.2,0.2-0.5,0.3-1,0.3
		c-0.5,0-0.8-0.1-1-0.3c-0.2-0.2-0.3-0.6-0.3-1.1c0-0.5,0.1-0.9,0.3-1.1C55.1,45.3,55.5,45.2,55.9,45.2 M55.2,46.6
		c0,0.3,0.1,0.6,0.2,0.7c0.1,0.1,0.3,0.2,0.6,0.2c0.3,0,0.5-0.1,0.6-0.2c0.1-0.1,0.2-0.4,0.2-0.7c0-0.3-0.1-0.6-0.2-0.7
		c-0.1-0.1-0.3-0.2-0.6-0.2c-0.3,0-0.5,0.1-0.6,0.2C55.2,46,55.2,46.3,55.2,46.6"/>
	<path class="st0" d="M58,48v0.9h-0.5v-3.1c0-0.1,0-0.3,0.1-0.3c0.1-0.1,0.2-0.1,0.3-0.1h0.8c0.3,0,0.5,0.1,0.7,0.3
		c0.2,0.2,0.3,0.5,0.3,1c0,0.5-0.1,0.8-0.2,1c-0.2,0.3-0.4,0.4-0.8,0.4H58z M58,47.5h0.6c0.2,0,0.4-0.1,0.5-0.2
		c0.1-0.1,0.1-0.3,0.1-0.6c0-0.3,0-0.5-0.1-0.6c-0.1-0.2-0.2-0.3-0.5-0.3h-0.5c0,0,0,0-0.1,0c0,0,0,0.1,0,0.1V47.5z"/>
	<path class="st0" d="M62.2,48h-1.3c-0.3,0-0.6-0.1-0.7-0.3c-0.1-0.2-0.2-0.5-0.2-1c0-0.3,0-0.5,0-0.7c0-0.2,0.1-0.4,0.2-0.5
		c0.2-0.2,0.5-0.3,0.9-0.3c0.4,0,0.6,0.1,0.8,0.2c0.2,0.2,0.3,0.4,0.3,0.9c0,0.2,0,0.3-0.1,0.4c-0.1,0.1-0.1,0.1-0.3,0.1h-1.4
		c0,0.2,0,0.3,0,0.4c0,0.2,0.2,0.3,0.5,0.3h1.2V48z M60.5,46.4h1.1c0.1,0,0.1-0.1,0.1-0.2c0-0.2-0.1-0.3-0.2-0.4
		c-0.1-0.1-0.3-0.1-0.5-0.1c-0.2,0-0.4,0.1-0.5,0.2C60.6,46,60.5,46.1,60.5,46.4"/>
	<path class="st0" d="M64.7,48h-1.2c-0.3,0-0.6-0.1-0.7-0.3c-0.1-0.2-0.2-0.5-0.2-1c0-0.5,0.1-0.9,0.3-1.1c0.2-0.2,0.4-0.3,0.7-0.3
		h1v0.5h-0.9c-0.3,0-0.5,0.1-0.6,0.4c0,0.1,0,0.3,0,0.5c0,0.3,0,0.4,0.1,0.6c0.1,0.2,0.3,0.3,0.6,0.3h0.9V48z"/>
	<path class="st0" d="M67.2,47.5c0,0.2,0,0.3-0.1,0.4C67,47.9,66.9,48,66.7,48h-0.9c-0.3,0-0.5-0.1-0.6-0.2C65,47.6,65,47.3,65,47
		v-1.7h0.5v1.6c0,0.2,0,0.4,0.1,0.5c0.1,0.1,0.2,0.2,0.4,0.2h0.4c0.1,0,0.1,0,0.2-0.1c0,0,0-0.1,0-0.2v-2h0.5V47.5z"/>
	<path class="st0" d="M67.7,45.3H69c0.5,0,0.7,0.3,0.7,0.8v1.4c0,0.2,0,0.3-0.1,0.3c-0.1,0.1-0.2,0.1-0.3,0.1h-1.2
		c-0.2,0-0.3,0-0.4-0.1c-0.1-0.1-0.2-0.4-0.2-0.7c0-0.3,0.1-0.5,0.2-0.7c0.1-0.1,0.3-0.2,0.4-0.2h1v-0.2c0-0.1,0-0.2-0.1-0.3
		c-0.1-0.1-0.1-0.1-0.3-0.1h-1.2V45.3z M69.2,46.7h-0.9c-0.1,0-0.2,0-0.2,0.1c0,0.1-0.1,0.2-0.1,0.3c0,0.1,0,0.2,0.1,0.3
		c0,0.1,0.1,0.1,0.2,0.1H69c0.1,0,0.1,0,0.1,0c0,0,0-0.1,0-0.1V46.7z"/>
	<path class="st0" d="M70.1,48v-1.7c0-0.4,0.1-0.6,0.2-0.8c0.2-0.2,0.4-0.2,0.7-0.2h0.4v0.5h-0.2c-0.2,0-0.4,0.1-0.5,0.2
		c-0.1,0.1-0.1,0.3-0.1,0.5V48H70.1z"/>
	<path class="st0" d="M72.1,44.9h-0.5v-0.5h0.5V44.9z M71.6,45.3h0.5V48h-0.5V45.3z"/>
	<path class="st0" d="M73.7,45.2c0.5,0,0.8,0.1,1,0.3c0.2,0.2,0.3,0.6,0.3,1.1c0,0.5-0.1,0.9-0.3,1.1c-0.2,0.2-0.5,0.3-1,0.3
		c-0.5,0-0.8-0.1-1-0.3c-0.2-0.2-0.3-0.6-0.3-1.1c0-0.5,0.1-0.9,0.3-1.1C72.9,45.3,73.2,45.2,73.7,45.2 M73,46.6
		c0,0.3,0.1,0.6,0.2,0.7c0.1,0.1,0.3,0.2,0.6,0.2c0.3,0,0.5-0.1,0.6-0.2c0.1-0.1,0.2-0.4,0.2-0.7c0-0.3-0.1-0.6-0.2-0.7
		c-0.1-0.1-0.3-0.2-0.6-0.2c-0.3,0-0.5,0.1-0.6,0.2C73,46,73,46.3,73,46.6"/>
</g>
</svg>
