<svg xmlns="http://www.w3.org/2000/svg" xmlns:xlink="http://www.w3.org/1999/xlink" viewBox="0 0 217 122"><defs><style>.a{fill:none;}.b{isolation:isolate;}.c{fill:#fff;}.d{opacity:0.75;mix-blend-mode:multiply;}.e{clip-path:url(#a);}</style><clipPath id="a"><rect class="a" x="42.56" y="34.84" width="133.1" height="30.46"/></clipPath></defs><title>logoconsultora</title><g class="b"><path class="c" d="M99.48,56h3V71.31A2.83,2.83,0,0,1,102,73a2.16,2.16,0,0,1-1.84.68H94.92A4.2,4.2,0,0,1,90.66,71,11.06,11.06,0,0,1,90,66.77a7.91,7.91,0,0,1,1-4.49,5.08,5.08,0,0,1,4.49-2h4Zm0,6.56H96.1a2.68,2.68,0,0,0-2.47,1.19A6.21,6.21,0,0,0,93,66.87a8.66,8.66,0,0,0,.35,3,2.64,2.64,0,0,0,2.7,1.51h2.37a1.18,1.18,0,0,0,.8-.2,1.36,1.36,0,0,0,.21-.93Z"/><path class="c" d="M116.57,73.66h-7.42q-2.9,0-4.09-1.69-1-1.36-1-4.87a15.27,15.27,0,0,1,.25-3.25,4.14,4.14,0,0,1,1.34-2.35q1.46-1.26,5-1.26a8.6,8.6,0,0,1,4.41.86Q117,62.28,117,65.43a2.76,2.76,0,0,1-.63,2,2,2,0,0,1-1.44.5h-7.77a7.64,7.64,0,0,0,.18,1.84q.4,1.59,2.7,1.59h6.54Zm-9.42-8h6.13q.66,0,.66-.78a2.07,2.07,0,0,0-.83-1.76,4.23,4.23,0,0,0-2.55-.63,3.64,3.64,0,0,0-2.8.88,3.69,3.69,0,0,0-.61,2.28"/><rect class="c" x="118.65" y="56" width="2.95" height="17.66"/><path class="c" d="M59.51,57.73H53.07a4.93,4.93,0,0,1-4-1.64q-1.21-1.44-1.21-4.87,0-3.89,1.51-5.42a5.48,5.48,0,0,1,4.09-1.44h5.73v2.27H54.43q-2.68,0-3.28,2.12a9.94,9.94,0,0,0-.23,2.52A6.58,6.58,0,0,0,51.35,54q.71,1.41,3.36,1.41h4.8Z"/><path class="c" d="M67.93,44.2q3.88,0,5.4,1.41Q75,47.2,75,51t-1.71,5.45q-1.54,1.44-5.4,1.44t-5.4-1.44q-1.71-1.56-1.71-5.35t1.71-5.48Q64,44.2,67.93,44.2m-4.06,6.86a5.26,5.26,0,0,0,.86,3.43,4,4,0,0,0,3.21,1.11,4.05,4.05,0,0,0,3.18-1.11A5.15,5.15,0,0,0,72,51.06a5.4,5.4,0,0,0-.86-3.53,4.15,4.15,0,0,0-3.21-1.06,4.09,4.09,0,0,0-3.23,1.06,5.52,5.52,0,0,0-.83,3.53"/><path class="c" d="M76.7,57.73V46.4A2.1,2.1,0,0,1,77.13,45a2.72,2.72,0,0,1,2-.61H83.9a5.47,5.47,0,0,1,3.74,1.08,4.45,4.45,0,0,1,1.31,3.48v8.8H86V49.81a4,4,0,0,0-.56-2.37,2.54,2.54,0,0,0-2.12-.81h-3a.7.7,0,0,0-.51.15.78.78,0,0,0-.15.55V57.73Z"/><path class="c" d="M90.8,57.73V55.45h7.52a1.23,1.23,0,0,0,1-.38,1.2,1.2,0,0,0,.25-.83,1.31,1.31,0,0,0-.38-1,9.06,9.06,0,0,0-2.42-.86l-2.57-.71a5.27,5.27,0,0,1-2.93-1.61,4.4,4.4,0,0,1,0-4.54q.83-1.16,3.2-1.16H102v2.27h-7.1a1.7,1.7,0,0,0-1.06.28,1.11,1.11,0,0,0-.35.93,1.24,1.24,0,0,0,.42,1,5.1,5.1,0,0,0,1.68.69l2.88.81a7.87,7.87,0,0,1,3.33,1.51,3.43,3.43,0,0,1,.81,2.45,3.38,3.38,0,0,1-1.11,2.85,3.51,3.51,0,0,1-2.14.56Z"/><path class="c" d="M116.63,55.33a2.31,2.31,0,0,1-.71,1.89,3.33,3.33,0,0,1-2.1.5h-4.72a5.19,5.19,0,0,1-3.48-1,5,5,0,0,1-1.36-3.94V44.36h3v7.89a4.06,4.06,0,0,0,.51,2.35,2.82,2.82,0,0,0,2.4.86h2.45a1.16,1.16,0,0,0,.85-.26,1.12,1.12,0,0,0,.27-.82v-10h3Z"/><rect class="c" x="118.65" y="40.07" width="2.95" height="17.66"/><path class="c" d="M131.22,57.73h-1.84a5.59,5.59,0,0,1-3.59-1,4.14,4.14,0,0,1-1.34-3.38V46.63h-1.84V44.36h1.84V40.07h3v4.29h3.74v2.27h-3.74V52a9.81,9.81,0,0,0,.08,1.51,2.13,2.13,0,0,0,.71,1.36,3.63,3.63,0,0,0,2.3.58h.73Z"/><path class="c" d="M139,44.2q3.88,0,5.4,1.41,1.72,1.59,1.72,5.38t-1.72,5.45q-1.54,1.44-5.4,1.44t-5.4-1.44q-1.72-1.56-1.72-5.35t1.72-5.48q1.51-1.41,5.4-1.41m-4.06,6.86a5.26,5.26,0,0,0,.86,3.43,5.15,5.15,0,0,0,6.39,0,5.15,5.15,0,0,0,.88-3.43,5.4,5.4,0,0,0-.86-3.53A4.15,4.15,0,0,0,139,46.47a4.09,4.09,0,0,0-3.23,1.06,5.52,5.52,0,0,0-.83,3.53"/><path class="c" d="M147.77,57.73V49.4a4.87,4.87,0,0,1,1.36-3.86,6,6,0,0,1,4-1.19h2v2.27h-1.24a3.12,3.12,0,0,0-2.52.93,4.05,4.05,0,0,0-.68,2.62v7.54Z"/><path class="c" d="M156.82,44.36h7.59q3.76,0,3.76,4.19v6.94a2.35,2.35,0,0,1-.53,1.72,2.56,2.56,0,0,1-1.84.53h-6.38a3.65,3.65,0,0,1-2.42-.66q-1.16-1-1.16-3.64A4.12,4.12,0,0,1,157,50.17a3.56,3.56,0,0,1,2.45-.78h5.8v-.93a2,2,0,0,0-.38-1.25,1.76,1.76,0,0,0-1.44-.58h-6.59Zm8.4,7.31H160.3a1.27,1.27,0,0,0-1.07.44,2.41,2.41,0,0,0-.34,1.45,2.16,2.16,0,0,0,.39,1.48,1.28,1.28,0,0,0,1,.42h4.12a1,1,0,0,0,.67-.16.68.68,0,0,0,.19-.54Z"/><path class="c" d="M124.29,84.77V80.72h13.44A2.2,2.2,0,0,0,139.5,80a2.16,2.16,0,0,0,.45-1.49,2.36,2.36,0,0,0-.68-1.81,16.3,16.3,0,0,0-4.33-1.54l-4.6-1.26q-3.92-1.09-5.23-2.89a7.9,7.9,0,0,1,0-8.13q1.49-2.08,5.73-2.08h13.49V64.9H131.66a3,3,0,0,0-1.89.5,2,2,0,0,0-.63,1.67,2.22,2.22,0,0,0,.74,1.83,9.08,9.08,0,0,0,3,1.24L138,71.58q4.64,1.31,5.95,2.71a6.16,6.16,0,0,1,1.44,4.38q0,3.57-2,5.1a6.27,6.27,0,0,1-3.83,1Z"/><rect class="c" x="169.46" y="72.52" width="8.36" height="2.12"/><rect class="c" x="172.63" y="72.53" width="5.16" height="2.11"/><path class="c" d="M185.42,77.08v-.17h2c1.93,0,3-1.62,3.84-3.28a12.85,12.85,0,0,0,.93-5.45,10.43,10.43,0,0,0-1.09-5.31q-1.34-2.21-4.66-2.21H176.14a3.39,3.39,0,0,0-2.61,1,4.52,4.52,0,0,0-.9,3.14v5.65h5.16V66.5a1.77,1.77,0,0,1,.42-1.33,1.54,1.54,0,0,1,1.1-.4h5.58a1.83,1.83,0,0,1,1.77.73c.51.58.77,1.17.77,2.83a7.51,7.51,0,0,1-.5,3.33,2.36,2.36,0,0,1-2.24,1.08h-3.83q-1.83,0-1.83,1.65v.55a3.25,3.25,0,0,0,1,2l7.14,7.82h5.42Z"/><rect class="c" x="172.63" y="76.76" width="5.16" height="8.04"/><rect class="c" x="147.37" y="72.52" width="16.81" height="2.12"/><path class="a" d="M153.53,79.18q1.13,1.54,4.28,1.54h4.37a2.07,2.07,0,0,0,1.51-.47,2,2,0,0,0,.47-1.47v-2H152.74A5.25,5.25,0,0,0,153.53,79.18Z"/><rect class="a" x="152.63" y="72.53" width="11.54" height="2.11"/><path class="c" d="M147.37,72.53v-.11h0v2.27h0v0h5.26V72.53Z"/><path class="c" d="M147.36,60.84v9.62h0v-.06h5.26V60.84Z"/><path class="c" d="M164.17,60.84v9.56h0v2.12h0v2.11h0v2.12h0v2a2,2,0,0,1-.47,1.47,2.07,2.07,0,0,1-1.51.47h-4.37q-3.15,0-4.28-1.54a5.25,5.25,0,0,1-.79-2.43h-5.33c.13,2.83.9,4.92,2.38,6.21s3.46,1.81,6.22,1.81h8.43a5.92,5.92,0,0,0,3.74-.9,4.14,4.14,0,0,0,1.26-3.39V60.84Z"/><path class="c" d="M27.06,84.74v-.82h2.72q.46,0,.46-.59a.62.62,0,0,0-.48-.62L27.83,82a1.19,1.19,0,0,1-.58-.41,1.71,1.71,0,0,1-.25-1,1.42,1.42,0,0,1,.32-1,1.07,1.07,0,0,1,.81-.3H31v.82H28.44a.52.52,0,0,0-.39.13.59.59,0,0,0-.12.42.61.61,0,0,0,.46.62l1.8.63a1.87,1.87,0,0,1,.7.39,1.49,1.49,0,0,1,.32,1.05,1.76,1.76,0,0,1-.25,1,1,1,0,0,1-.88.39Z"/><path class="c" d="M35.07,84.74H33a1.24,1.24,0,0,1-1.14-.52,3,3,0,0,1-.27-1.5,5.23,5.23,0,0,1,.07-1A1.32,1.32,0,0,1,32,81a2,2,0,0,1,1.39-.39,2.2,2.2,0,0,1,1.23.26,1.53,1.53,0,0,1,.53,1.34.92.92,0,0,1-.18.62.51.51,0,0,1-.4.16H32.45a2.62,2.62,0,0,0,0,.57q.11.49.75.49h1.82Zm-2.62-2.46h1.7q.18,0,.18-.24a.68.68,0,0,0-.23-.55,1.08,1.08,0,0,0-.71-.19.94.94,0,0,0-.78.27,1.24,1.24,0,0,0-.17.71"/><path class="c" d="M35.65,84.74V82.16A1.6,1.6,0,0,1,36,81a1.56,1.56,0,0,1,1.12-.37h.55v.7h-.34a.82.82,0,0,0-.7.29,1.36,1.36,0,0,0-.19.81v2.33Z"/><path class="c" d="M38.39,80.6l1,3.07c0,.11.07.16.1.16s.06-.05.1-.16l1-3.07h.85L40.1,84.42a.63.63,0,0,1-1.14,0L37.54,80.6Z"/><path class="c" d="M42.45,80h-.82v-.73h.82Zm-.82.6h.82v4.13h-.82Z"/><path class="c" d="M46.15,84.74H44.36a1.31,1.31,0,0,1-1.11-.51A3.54,3.54,0,0,1,43.34,81a1.44,1.44,0,0,1,1.14-.44h1.59v.7H44.74a.84.84,0,0,0-.91.65,3.46,3.46,0,0,0-.06.78,2.25,2.25,0,0,0,.12.86q.2.44.93.44h1.33Z"/><path class="c" d="M47.44,80h-.82v-.73h.82Zm-.82.6h.82v4.13h-.82Z"/><path class="c" d="M49.88,80.55a2.05,2.05,0,0,1,1.5.44,2.35,2.35,0,0,1,.48,1.66,2.41,2.41,0,0,1-.48,1.69,2.76,2.76,0,0,1-3,0,2.32,2.32,0,0,1-.48-1.65A2.4,2.4,0,0,1,48.38,81a2.05,2.05,0,0,1,1.5-.44m-1.13,2.12A1.77,1.77,0,0,0,49,83.74a1.32,1.32,0,0,0,1.77,0A1.73,1.73,0,0,0,51,82.68a1.82,1.82,0,0,0-.24-1.09,1.09,1.09,0,0,0-.89-.33,1.07,1.07,0,0,0-.9.33,1.86,1.86,0,0,0-.23,1.09"/><rect class="c" x="54.1" y="79.28" width="0.93" height="5.46"/><path class="c" d="M55.73,84.74v-3.5a.69.69,0,0,1,.12-.44.71.71,0,0,1,.57-.19h1.31a1.42,1.42,0,0,1,1,.34A1.46,1.46,0,0,1,59.13,82v2.72h-.82V82.29a1.34,1.34,0,0,0-.15-.73.67.67,0,0,0-.59-.25h-.84a.18.18,0,0,0-.14,0,.27.27,0,0,0,0,.17v3.21Z"/><path class="c" d="M61.81,84.74H61.3a1.44,1.44,0,0,1-1-.3,1.35,1.35,0,0,1-.37-1V81.3h-.51v-.7h.51V79.28h.82V80.6h1v.7h-1V83a3.47,3.47,0,0,0,0,.47.68.68,0,0,0,.2.42.93.93,0,0,0,.64.18h.2Z"/><path class="c" d="M65.46,84.74H63.4a1.24,1.24,0,0,1-1.14-.52,3,3,0,0,1-.27-1.5,5.22,5.22,0,0,1,.07-1,1.32,1.32,0,0,1,.37-.73,2,2,0,0,1,1.39-.39,2.2,2.2,0,0,1,1.23.26,1.53,1.53,0,0,1,.53,1.34.92.92,0,0,1-.18.62A.51.51,0,0,1,65,83H62.84a2.62,2.62,0,0,0,0,.57q.11.49.75.49h1.82Zm-2.62-2.46h1.7q.18,0,.18-.24a.68.68,0,0,0-.23-.55,1.08,1.08,0,0,0-.71-.19,1,1,0,0,0-.78.27,1.25,1.25,0,0,0-.17.71"/><path class="c" d="M66.21,86.1v-.7h1.57a1,1,0,0,0,.69-.19.75.75,0,0,0,.22-.48H67.36a1.19,1.19,0,0,1-1.13-.53,3.33,3.33,0,0,1-.29-1.6,2.46,2.46,0,0,1,.39-1.55,1.4,1.4,0,0,1,1.14-.45h1.2a.9.9,0,0,1,.6.16.77.77,0,0,1,.22.6v2.9a2.26,2.26,0,0,1-.3,1.33,1.46,1.46,0,0,1-1.24.5ZM68.68,84v-2.4a.3.3,0,0,0-.1-.26.37.37,0,0,0-.23-.07h-.7a.78.78,0,0,0-.64.26,1.92,1.92,0,0,0-.22,1.11A2,2,0,0,0,67,83.79a.85.85,0,0,0,.7.24Z"/><path class="c" d="M70.06,84.74V82.16A1.6,1.6,0,0,1,70.44,81a1.55,1.55,0,0,1,1.12-.37h.55v.7h-.34a.82.82,0,0,0-.7.29,1.36,1.36,0,0,0-.19.81v2.33Z"/><path class="c" d="M72.58,80.6H74.7q1,0,1,1.29V84a.78.78,0,0,1-.15.53.67.67,0,0,1-.51.16H73.31a1,1,0,0,1-.67-.2,1.54,1.54,0,0,1-.32-1.12,1.35,1.35,0,0,1,.32-1,.93.93,0,0,1,.68-.24h1.62v-.29a.66.66,0,0,0-.1-.39.47.47,0,0,0-.4-.18H72.58Zm2.34,2.26H73.55a.34.34,0,0,0-.3.14.81.81,0,0,0-.1.45.72.72,0,0,0,.11.46.34.34,0,0,0,.27.13h1.14a.27.27,0,0,0,.19-.05.23.23,0,0,0,.05-.17Z"/><rect class="c" x="76.3" y="79.28" width="0.82" height="5.46"/><path class="c" d="M78.83,84.74l1.85-4.91a1.1,1.1,0,0,1,.31-.48.81.81,0,0,1,.5-.13.8.8,0,0,1,.49.14,1.09,1.09,0,0,1,.31.48l1.85,4.91h-1l-.51-1.38H80.3l-.5,1.38Zm2.52-4.34-.81,2.22h1.89l-.8-2.22q-.08-.23-.14-.23s-.08.08-.14.23"/><path class="c" d="M84.38,86.1v-.7H86a1,1,0,0,0,.69-.19.75.75,0,0,0,.22-.48H85.54a1.19,1.19,0,0,1-1.13-.53,3.33,3.33,0,0,1-.29-1.6,2.46,2.46,0,0,1,.39-1.55,1.39,1.39,0,0,1,1.14-.45h1.2a.9.9,0,0,1,.6.16.77.77,0,0,1,.22.6v2.9a2.25,2.25,0,0,1-.3,1.33,1.46,1.46,0,0,1-1.24.5ZM86.86,84v-2.4a.3.3,0,0,0-.09-.26.38.38,0,0,0-.23-.07h-.7a.78.78,0,0,0-.64.26A1.91,1.91,0,0,0,85,82.68a2,2,0,0,0,.21,1.12.85.85,0,0,0,.7.24Z"/><path class="c" d="M88.24,84.74V82.16A1.6,1.6,0,0,1,88.62,81a1.55,1.55,0,0,1,1.12-.37h.55v.7H90a.82.82,0,0,0-.7.29,1.36,1.36,0,0,0-.19.81v2.33Z"/><path class="c" d="M92.46,80.55A2.05,2.05,0,0,1,94,81a2.35,2.35,0,0,1,.48,1.66A2.41,2.41,0,0,1,94,84.34a2.76,2.76,0,0,1-3,0,2.32,2.32,0,0,1-.48-1.65A2.4,2.4,0,0,1,91,81a2.05,2.05,0,0,1,1.5-.44m-1.13,2.12a1.77,1.77,0,0,0,.24,1.06,1.32,1.32,0,0,0,1.77,0,1.73,1.73,0,0,0,.25-1.06,1.82,1.82,0,0,0-.24-1.09,1.09,1.09,0,0,0-.89-.33,1.07,1.07,0,0,0-.9.33,1.86,1.86,0,0,0-.23,1.09"/><path class="c" d="M95.73,84.74v1.33H94.9V81.24a.63.63,0,0,1,.21-.51.7.7,0,0,1,.46-.13h1.3a1.37,1.37,0,0,1,1.1.45,2.33,2.33,0,0,1,.39,1.53,3.06,3.06,0,0,1-.3,1.56,1.42,1.42,0,0,1-1.31.59Zm0-.7h.93a.76.76,0,0,0,.7-.38,2.18,2.18,0,0,0,.15-1,2.75,2.75,0,0,0-.1-.89.7.7,0,0,0-.72-.47h-.81a.16.16,0,0,0-.11.06.18.18,0,0,0-.06.14Z"/><path class="c" d="M102.2,84.74h-2.06A1.24,1.24,0,0,1,99,84.21a3,3,0,0,1-.27-1.5,5.22,5.22,0,0,1,.07-1,1.32,1.32,0,0,1,.37-.73,2,2,0,0,1,1.39-.39,2.2,2.2,0,0,1,1.23.26,1.53,1.53,0,0,1,.53,1.34.92.92,0,0,1-.18.62.51.51,0,0,1-.4.16H99.58a2.58,2.58,0,0,0,0,.57q.11.49.75.49h1.82Zm-2.62-2.46h1.7q.18,0,.18-.24a.68.68,0,0,0-.23-.55,1.08,1.08,0,0,0-.71-.19,1,1,0,0,0-.78.27,1.25,1.25,0,0,0-.17.71"/><path class="c" d="M105.92,84.74h-1.79a1.31,1.31,0,0,1-1.11-.51A3.54,3.54,0,0,1,103.1,81a1.44,1.44,0,0,1,1.14-.44h1.59v.7h-1.33a.83.83,0,0,0-.91.65,3.41,3.41,0,0,0-.06.78,2.24,2.24,0,0,0,.12.86q.2.44.93.44h1.33Z"/><path class="c" d="M109.82,84a.76.76,0,0,1-.2.58.85.85,0,0,1-.58.16h-1.31a1.34,1.34,0,0,1-1-.31,1.64,1.64,0,0,1-.38-1.22V80.6h.82V83a1.38,1.38,0,0,0,.14.73A.74.74,0,0,0,108,84h.68a.3.3,0,0,0,.23-.08.37.37,0,0,0,.07-.25V80.6h.82Z"/><path class="c" d="M110.56,80.6h2.11q1,0,1,1.29V84a.78.78,0,0,1-.15.53.67.67,0,0,1-.51.16h-1.78a1,1,0,0,1-.67-.2,1.54,1.54,0,0,1-.32-1.12,1.35,1.35,0,0,1,.32-1,.93.93,0,0,1,.68-.24h1.62v-.29a.66.66,0,0,0-.11-.39.47.47,0,0,0-.4-.18h-1.83Zm2.34,2.26h-1.37a.34.34,0,0,0-.3.14.81.81,0,0,0-.09.45.72.72,0,0,0,.11.46.34.34,0,0,0,.27.13h1.14a.27.27,0,0,0,.19-.05.23.23,0,0,0,.05-.17Z"/><path class="c" d="M114.28,84.74V82.16a1.6,1.6,0,0,1,.38-1.19,1.56,1.56,0,0,1,1.12-.37h.55v.7H116a.82.82,0,0,0-.7.29,1.36,1.36,0,0,0-.19.81v2.33Z"/><path class="c" d="M117.44,80h-.82v-.73h.82Zm-.82.6h.82v4.13h-.82Z"/><path class="c" d="M119.88,80.55a2.05,2.05,0,0,1,1.5.44,2.35,2.35,0,0,1,.48,1.66,2.4,2.4,0,0,1-.48,1.69,2.76,2.76,0,0,1-3,0,2.32,2.32,0,0,1-.48-1.65,2.4,2.4,0,0,1,.48-1.69,2.05,2.05,0,0,1,1.5-.44m-1.13,2.12a1.77,1.77,0,0,0,.24,1.06,1.32,1.32,0,0,0,1.77,0,1.74,1.74,0,0,0,.25-1.06,1.82,1.82,0,0,0-.24-1.09,1.09,1.09,0,0,0-.89-.33,1.07,1.07,0,0,0-.9.33,1.86,1.86,0,0,0-.23,1.09"/></g></svg>