<svg xmlns="http://www.w3.org/2000/svg" viewBox="0 0 217 122"><defs><style>.a{fill:#fff;}</style></defs><title>logoit10</title><rect class="a" x="56.66" y="94.81" width="0.5" height="5.01"/><polygon class="a" points="62.62 99.82 62.12 99.82 59.34 95.61 59.34 99.82 58.84 99.82 58.84 94.81 59.34 94.81 62.12 99.02 62.12 94.81 62.62 94.81 62.62 99.82"/><polygon class="a" points="68.08 99.82 67.58 99.82 64.8 95.61 64.8 99.82 64.3 99.82 64.3 94.81 64.8 94.81 67.58 99.02 67.58 94.81 68.08 94.81 68.08 99.82"/><path class="a" d="M70.74,99.55a2.35,2.35,0,0,1-.89-.91,2.85,2.85,0,0,1,0-2.65,2.35,2.35,0,0,1,.89-.91,2.62,2.62,0,0,1,2.53,0,2.33,2.33,0,0,1,.89.91,2.88,2.88,0,0,1,0,2.65,2.33,2.33,0,0,1-.89.91,2.62,2.62,0,0,1-2.53,0M73,99.18a1.84,1.84,0,0,0,.7-.74A2.35,2.35,0,0,0,74,97.31a2.33,2.33,0,0,0-.26-1.12,1.84,1.84,0,0,0-.7-.74,2.08,2.08,0,0,0-2,0,1.84,1.84,0,0,0-.7.74A2.33,2.33,0,0,0,70,97.31a2.36,2.36,0,0,0,.26,1.12,1.83,1.83,0,0,0,.7.74,2.08,2.08,0,0,0,2,0"/><polygon class="a" points="79.92 94.81 78.02 99.83 77.44 99.83 75.54 94.81 76.09 94.81 77.73 99.28 79.39 94.81 79.92 94.81"/><path class="a" d="M84.11,98.63H81.83l-.44,1.19h-.53l1.83-4.95h.57l1.82,4.95h-.53ZM84,98.22l-1-2.71-1,2.71Z"/><path class="a" d="M86.52,96a2.34,2.34,0,0,1,.88-.91,2.43,2.43,0,0,1,1.25-.33,2.54,2.54,0,0,1,1.44.4A2.26,2.26,0,0,1,91,96.27h-.59a1.74,1.74,0,0,0-.66-.8,2.08,2.08,0,0,0-2.06,0,1.79,1.79,0,0,0-.69.74,2.63,2.63,0,0,0,0,2.24,1.79,1.79,0,0,0,.69.74,2.09,2.09,0,0,0,2.06,0,1.72,1.72,0,0,0,.66-.79H91a2.24,2.24,0,0,1-.88,1.11,2.56,2.56,0,0,1-1.43.39,2.43,2.43,0,0,1-1.25-.33,2.36,2.36,0,0,1-.88-.91,2.87,2.87,0,0,1,0-2.64"/><rect class="a" x="92.49" y="94.81" width="0.5" height="5.01"/><path class="a" d="M95.66,99.55a2.35,2.35,0,0,1-.89-.91,2.85,2.85,0,0,1,0-2.65,2.35,2.35,0,0,1,.89-.91,2.61,2.61,0,0,1,2.53,0,2.33,2.33,0,0,1,.89.91,2.88,2.88,0,0,1,0,2.65,2.33,2.33,0,0,1-.89.91,2.61,2.61,0,0,1-2.53,0m2.27-.37a1.83,1.83,0,0,0,.7-.74,2.35,2.35,0,0,0,.26-1.12,2.33,2.33,0,0,0-.26-1.12,1.84,1.84,0,0,0-.7-.74,2.08,2.08,0,0,0-2,0,1.84,1.84,0,0,0-.7.74A2.33,2.33,0,0,0,95,97.31a2.35,2.35,0,0,0,.26,1.12,1.83,1.83,0,0,0,.7.74,2.08,2.08,0,0,0,2,0m-.31-5.46-1.47.85v-.39l1.47-.92Z"/><polygon class="a" points="104.64 99.82 104.14 99.82 101.36 95.61 101.36 99.82 100.86 99.82 100.86 94.81 101.36 94.81 104.14 99.02 104.14 94.81 104.64 94.81 104.64 99.82"/><polygon class="a" points="111.76 94.81 111.76 95.23 110.36 95.23 110.36 99.83 109.86 99.83 109.86 95.23 108.46 95.23 108.46 94.81 111.76 94.81"/><polygon class="a" points="113.59 95.22 113.59 97.09 115.49 97.09 115.49 97.51 113.59 97.51 113.59 99.41 115.71 99.41 115.71 99.82 113.09 99.82 113.09 94.8 115.71 94.8 115.71 95.22 113.59 95.22"/><path class="a" d="M117.33,96a2.34,2.34,0,0,1,.88-.91,2.43,2.43,0,0,1,1.25-.33,2.53,2.53,0,0,1,1.44.4,2.26,2.26,0,0,1,.87,1.12h-.59a1.73,1.73,0,0,0-.66-.8,2.08,2.08,0,0,0-2.06,0,1.79,1.79,0,0,0-.69.74,2.63,2.63,0,0,0,0,2.24,1.79,1.79,0,0,0,.69.74,2.09,2.09,0,0,0,2.06,0,1.72,1.72,0,0,0,.66-.79h.59a2.24,2.24,0,0,1-.88,1.11,2.55,2.55,0,0,1-1.43.39,2.43,2.43,0,0,1-1.25-.33,2.35,2.35,0,0,1-.88-.91,2.87,2.87,0,0,1,0-2.64"/><polygon class="a" points="127.08 99.82 126.58 99.82 123.81 95.61 123.81 99.82 123.3 99.82 123.3 94.81 123.81 94.81 126.58 99.02 126.58 94.81 127.08 94.81 127.08 99.82"/><path class="a" d="M129.75,99.55a2.35,2.35,0,0,1-.89-.91,2.85,2.85,0,0,1,0-2.65,2.35,2.35,0,0,1,.89-.91,2.62,2.62,0,0,1,2.53,0,2.32,2.32,0,0,1,.89.91,2.87,2.87,0,0,1,0,2.65,2.33,2.33,0,0,1-.89.91,2.62,2.62,0,0,1-2.53,0m2.27-.37a1.83,1.83,0,0,0,.7-.74,2.35,2.35,0,0,0,.26-1.12,2.33,2.33,0,0,0-.26-1.12,1.84,1.84,0,0,0-.7-.74,2.08,2.08,0,0,0-2,0,1.84,1.84,0,0,0-.7.74,2.33,2.33,0,0,0-.26,1.12,2.36,2.36,0,0,0,.26,1.12,1.83,1.83,0,0,0,.7.74,2.08,2.08,0,0,0,2,0"/><polygon class="a" points="135.45 99.42 137.25 99.42 137.25 99.83 134.95 99.83 134.95 94.81 135.45 94.81 135.45 99.42"/><path class="a" d="M139.5,99.55a2.35,2.35,0,0,1-.89-.91,2.85,2.85,0,0,1,0-2.65,2.35,2.35,0,0,1,.89-.91,2.62,2.62,0,0,1,2.53,0,2.33,2.33,0,0,1,.89.91,2.88,2.88,0,0,1,0,2.65,2.33,2.33,0,0,1-.89.91,2.62,2.62,0,0,1-2.53,0m2.27-.37a1.83,1.83,0,0,0,.7-.74,2.35,2.35,0,0,0,.26-1.12,2.33,2.33,0,0,0-.26-1.12,1.84,1.84,0,0,0-.7-.74,2.08,2.08,0,0,0-2,0,1.84,1.84,0,0,0-.7.74,2.33,2.33,0,0,0-.26,1.12,2.35,2.35,0,0,0,.26,1.12,1.83,1.83,0,0,0,.7.74,2.08,2.08,0,0,0,2,0m-.31-5.46-1.47.85v-.39l1.47-.92Z"/><path class="a" d="M148.64,96.27a1.72,1.72,0,0,0-.66-.78,1.88,1.88,0,0,0-1-.28,2,2,0,0,0-1,.26,1.85,1.85,0,0,0-.7.73,2.51,2.51,0,0,0,0,2.22,1.84,1.84,0,0,0,.7.74,2.08,2.08,0,0,0,1.95,0,1.75,1.75,0,0,0,.67-.65,2.12,2.12,0,0,0,.29-1h-2.11v-.41h2.64v.37a2.54,2.54,0,0,1-.36,1.19,2.36,2.36,0,0,1-.86.84,2.42,2.42,0,0,1-1.22.31,2.48,2.48,0,0,1-1.26-.33,2.35,2.35,0,0,1-.89-.91,2.85,2.85,0,0,1,0-2.65,2.35,2.35,0,0,1,.89-.91,2.63,2.63,0,0,1,2.67.08,2.27,2.27,0,0,1,.87,1.12Z"/><rect class="a" x="150.85" y="94.81" width="0.5" height="5.01"/><path class="a" d="M153.12,96a2.34,2.34,0,0,1,.88-.91,2.43,2.43,0,0,1,1.25-.33,2.54,2.54,0,0,1,1.44.4,2.26,2.26,0,0,1,.87,1.12H157a1.73,1.73,0,0,0-.66-.8,2.08,2.08,0,0,0-2.06,0,1.79,1.79,0,0,0-.69.74,2.63,2.63,0,0,0,0,2.24,1.8,1.8,0,0,0,.69.74,2.09,2.09,0,0,0,2.06,0,1.72,1.72,0,0,0,.66-.79h.59a2.24,2.24,0,0,1-.88,1.11,2.56,2.56,0,0,1-1.43.39,2.43,2.43,0,0,1-1.25-.33,2.35,2.35,0,0,1-.88-.91,2.87,2.87,0,0,1,0-2.64"/><path class="a" d="M162,98.63h-2.28l-.44,1.19h-.53l1.83-4.95h.57L163,99.82h-.53Zm-.15-.42-1-2.71-1,2.71Z"/><path class="a" d="M66.41,38.32a2.47,2.47,0,0,0-1.78-.74h-5.5a2.5,2.5,0,0,0-2.51,2.51V86.2a2.51,2.51,0,0,0,2.51,2.51h5.5a2.51,2.51,0,0,0,2.51-2.51V40.09a2.47,2.47,0,0,0-.73-1.77"/><path class="a" d="M93.35,38.32a2.47,2.47,0,0,0-1.78-.74h-6V24.7A2.5,2.5,0,0,0,83,22.2h-5.8a2.5,2.5,0,0,0-2.51,2.51V37.59h-3.1a2.5,2.5,0,0,0-2.51,2.51V46a2.5,2.5,0,0,0,2.51,2.51h3.1V74.66c0,5.12,1.4,8.85,4.17,11.08,2.5,2,4.3,3,7.83,3h4a2.51,2.51,0,0,0,2.51-2.51V80.11A2.5,2.5,0,0,0,90.7,77.6H89.57a3.89,3.89,0,0,1-2.95-1c-.48-.5-1.06-1.67-1.06-4.39V48.49h6A2.5,2.5,0,0,0,94.07,46V40.09a2.47,2.47,0,0,0-.73-1.77"/><path class="a" d="M118.22,40.14a2.58,2.58,0,0,0-.68-1.72,2.28,2.28,0,0,0-1.75-.85h0l-17.24,0a2.29,2.29,0,0,0-1.74.81,2.92,2.92,0,0,0-.69,1.73v6a2.38,2.38,0,0,0,2.58,2.39h8.71l-.07,37.71a2.5,2.5,0,0,0,2.51,2.51h5.87a2.46,2.46,0,0,0,1.78-.74,2.79,2.79,0,0,0,.73-2.14c0-.39,0-42.38,0-45.74"/><path class="a" d="M157.11,43.83c-3.93-4.08-9.17-6.14-15.6-6.14S130,39.75,126.07,43.83c-4.14,4.35-5.83,8.63-5.83,14.8v8c0,6.55,2,11.93,5.83,16s9.08,6.15,15.44,6.15,11.67-2.07,15.6-6.14,5.89-9.44,5.89-16v-8a19.41,19.41,0,0,0-5.89-14.8m-26,15.75c0-4,.58-5.38,2.52-7.78a9.74,9.74,0,0,1,7.85-3.41,10.67,10.67,0,0,1,8.28,3.37c2.05,2.44,2.43,3.82,2.43,7.82v5.48c0,4-.47,7.23-2.43,9.58a10.53,10.53,0,0,1-8.28,3.45,9.75,9.75,0,0,1-7.85-3.45c-1.91-2.36-2.52-5.58-2.52-9.58Z"/><path class="a" d="M67.59,22.31a7.58,7.58,0,0,0-5.65-2.24A7.67,7.67,0,0,0,54,28,7.67,7.67,0,0,0,61.94,36a7.63,7.63,0,0,0,5.6-2.24A7.76,7.76,0,0,0,69.78,28a7.87,7.87,0,0,0-2.19-5.7"/></svg>