<svg xmlns="http://www.w3.org/2000/svg" xmlns:xlink="http://www.w3.org/1999/xlink" viewBox="0 0 750 500"><defs><style>.a,.d{fill:none;}.b{clip-path:url(#a);}.c{fill:#9b7adb;}.d{stroke:#ff7175;stroke-miterlimit:10;}.e{clip-path:url(#b);}</style><clipPath id="a"><circle class="a" cx="132.34" cy="393.15" r="66.15" transform="translate(-262.71 519.68) rotate(-89.16)"/></clipPath><clipPath id="b"><circle class="a" cx="583.34" cy="190.15" r="66.15" transform="translate(101.54 570.03) rotate(-56.31)"/></clipPath></defs><title>svgindex2desk-1</title><g class="b"><path class="c" d="M209.88,331.95,56.1,329.68a2.74,2.74,0,1,1,.08-5.44L210,326.51a2.74,2.74,0,1,1-.08,5.44Z"/><path class="c" d="M56,334.76,209.81,337a2.74,2.74,0,1,1-.08,5.44L55.95,340.2a2.74,2.74,0,1,1,.08-5.44Z"/><path class="c" d="M55.87,345.29l153.78,2.27a2.74,2.74,0,1,1-.08,5.44L55.79,350.72a2.74,2.74,0,1,1,.08-5.44Z"/><path class="c" d="M55.72,355.81l153.78,2.27a2.74,2.74,0,1,1-.08,5.44L55.64,361.24a2.74,2.74,0,1,1,.08-5.44Z"/><path class="c" d="M55.56,366.33l153.78,2.27a2.74,2.74,0,1,1-.08,5.44L55.48,371.77a2.74,2.74,0,1,1,.08-5.44Z"/><path class="c" d="M55.41,376.85l153.78,2.27a2.74,2.74,0,1,1-.08,5.44L55.33,382.29a2.74,2.74,0,1,1,.08-5.44Z"/><path class="c" d="M55.25,387.37,209,389.64a2.74,2.74,0,1,1-.08,5.44L55.17,392.81a2.74,2.74,0,1,1,.08-5.44Z"/><path class="c" d="M55.1,397.89l153.78,2.27a2.74,2.74,0,1,1-.08,5.44L55,403.33a2.74,2.74,0,1,1,.08-5.44Z"/><path class="c" d="M54.94,408.42l153.78,2.27a2.74,2.74,0,1,1-.08,5.44L54.86,413.85a2.74,2.74,0,1,1,.08-5.44Z"/><path class="c" d="M54.79,418.94l153.78,2.27a2.74,2.74,0,1,1-.08,5.44L54.71,424.37a2.74,2.74,0,1,1,.08-5.44Z"/><path class="c" d="M54.63,429.46l153.78,2.27a2.74,2.74,0,1,1-.08,5.44L54.55,434.9a2.74,2.74,0,1,1,.08-5.44Z"/><path class="c" d="M54.48,440l153.78,2.27a2.74,2.74,0,1,1-.08,5.44L54.4,445.42a2.74,2.74,0,1,1,.08-5.44Z"/><path class="c" d="M54.32,450.5l153.78,2.27a2.74,2.74,0,1,1-.08,5.44L54.24,455.94a2.74,2.74,0,1,1,.08-5.44Z"/><path class="c" d="M54.17,461l153.78,2.27a2.74,2.74,0,1,1-.08,5.44L54.09,466.46a2.74,2.74,0,1,1,.08-5.44Z"/><path class="c" d="M54,471.55l153.78,2.27a2.74,2.74,0,1,1-.08,5.44L53.93,477a2.74,2.74,0,1,1,.08-5.44Z"/><path class="c" d="M53.86,482.07l153.78,2.27a2.74,2.74,0,1,1-.08,5.44L53.78,487.51a2.74,2.74,0,1,1,.08-5.44Z"/></g><circle class="d" cx="91.94" cy="343" r="33.5"/><g class="e"><path class="c" d="M574,91.81l-85.31,128a2.74,2.74,0,1,1-4.52-3l85.31-128a2.74,2.74,0,1,1,4.52,3Z"/><path class="c" d="M492.9,222.6l85.31-128a2.74,2.74,0,1,1,4.52,3l-85.31,128a2.74,2.74,0,1,1-4.52-3Z"/><path class="c" d="M501.66,228.43l85.31-128a2.74,2.74,0,1,1,4.52,3l-85.31,128a2.74,2.74,0,1,1-4.52-3Z"/><path class="c" d="M510.41,234.27l85.31-128a2.74,2.74,0,1,1,4.52,3l-85.31,128a2.74,2.74,0,1,1-4.52-3Z"/><path class="c" d="M519.17,240.11l85.31-128a2.74,2.74,0,1,1,4.52,3l-85.31,128a2.74,2.74,0,1,1-4.52-3Z"/><path class="c" d="M527.92,245.95l85.31-128a2.74,2.74,0,1,1,4.52,3L532.45,249a2.74,2.74,0,1,1-4.52-3Z"/><path class="c" d="M536.68,251.78l85.31-128a2.74,2.74,0,1,1,4.52,3l-85.31,128a2.74,2.74,0,1,1-4.52-3Z"/><path class="c" d="M545.43,257.62l85.31-128a2.74,2.74,0,1,1,4.52,3L550,260.64a2.74,2.74,0,1,1-4.52-3Z"/><path class="c" d="M554.19,263.46l85.31-128a2.74,2.74,0,1,1,4.52,3l-85.31,128a2.74,2.74,0,1,1-4.52-3Z"/><path class="c" d="M562.94,269.29l85.31-128a2.74,2.74,0,1,1,4.52,3l-85.31,128a2.74,2.74,0,1,1-4.52-3Z"/><path class="c" d="M571.7,275.13l85.31-128a2.74,2.74,0,1,1,4.52,3l-85.31,128a2.74,2.74,0,1,1-4.52-3Z"/><path class="c" d="M580.46,281l85.31-128a2.74,2.74,0,1,1,4.52,3L585,284a2.74,2.74,0,1,1-4.52-3Z"/><path class="c" d="M589.21,286.81l85.31-128a2.74,2.74,0,1,1,4.52,3l-85.31,128a2.74,2.74,0,1,1-4.52-3Z"/><path class="c" d="M598,292.64l85.31-128a2.74,2.74,0,1,1,4.52,3l-85.31,128a2.74,2.74,0,1,1-4.52-3Z"/><path class="c" d="M606.72,298.48l85.31-128a2.74,2.74,0,1,1,4.52,3l-85.31,128a2.74,2.74,0,1,1-4.52-3Z"/><path class="c" d="M615.48,304.32l85.31-128a2.74,2.74,0,1,1,4.52,3L620,307.33a2.74,2.74,0,1,1-4.52-3Z"/></g><circle class="d" cx="526.94" cy="162" r="33.5"/></svg>