<svg xmlns="http://www.w3.org/2000/svg" xmlns:xlink="http://www.w3.org/1999/xlink" viewBox="0 0 360 435"><defs><style>.a,.e{fill:none;}.b{clip-path:url(#a);}.c{fill:#72d0eb;}.d{clip-path:url(#b);}.e{stroke:#9b7adb;stroke-miterlimit:10;stroke-width:1.2px;}</style><clipPath id="a"><circle class="a" cx="272.6" cy="106.15" r="66.15" transform="translate(-13.1 169.05) rotate(-33.69)"/></clipPath><clipPath id="b"><circle class="a" cx="95.6" cy="330.15" r="66.15" transform="translate(-167.08 108.48) rotate(-33.69)"/></clipPath></defs><title>svgnosotros1mov-1</title><g class="b"><path class="c" d="M282,7.81l85.31,128a2.74,2.74,0,1,0,4.52-3l-85.31-128a2.91,2.91,0,0,0-4-1.05A2.91,2.91,0,0,0,282,7.81Z"/><path class="c" d="M363,138.6l-85.31-128a2.91,2.91,0,0,0-4-1.05,2.91,2.91,0,0,0-.56,4.07l85.31,128a2.74,2.74,0,1,0,4.52-3Z"/><path class="c" d="M354.28,144.43,269,16.47a2.91,2.91,0,0,0-4-1.05,2.91,2.91,0,0,0-.56,4.07l85.31,128a2.74,2.74,0,1,0,4.52-3Z"/><path class="c" d="M345.53,150.27l-85.31-128a2.74,2.74,0,1,0-4.52,3l85.31,128a2.74,2.74,0,1,0,4.52-3Z"/><path class="c" d="M336.77,156.11l-85.31-128a2.74,2.74,0,1,0-4.52,3l85.31,128a2.74,2.74,0,1,0,4.52-3Z"/><path class="c" d="M328,161.95,242.7,34a2.74,2.74,0,1,0-4.52,3l85.31,128a2.74,2.74,0,1,0,4.52-3Z"/><path class="c" d="M319.26,167.78l-85.31-128a2.74,2.74,0,1,0-4.52,3l85.31,128a2.74,2.74,0,1,0,4.52-3Z"/><path class="c" d="M310.51,173.62l-85.31-128a2.74,2.74,0,1,0-4.52,3l85.31,128a2.74,2.74,0,1,0,4.52-3Z"/><path class="c" d="M301.75,179.46l-85.31-128a2.74,2.74,0,1,0-4.52,3l85.31,128a2.74,2.74,0,1,0,4.52-3Z"/><path class="c" d="M293,185.29l-85.31-128a2.74,2.74,0,1,0-4.52,3l85.31,128a2.74,2.74,0,1,0,4.52-3Z"/><path class="c" d="M284.24,191.13l-85.31-128a2.74,2.74,0,1,0-4.52,3l85.31,128a2.74,2.74,0,1,0,4.52-3Z"/><path class="c" d="M275.49,197,190.17,69a2.74,2.74,0,1,0-4.52,3L271,200a2.74,2.74,0,1,0,4.52-3Z"/><path class="c" d="M266.73,202.81l-85.31-128a2.74,2.74,0,1,0-4.52,3l85.31,128a2.74,2.74,0,1,0,4.52-3Z"/><path class="c" d="M258,208.64l-85.31-128a2.74,2.74,0,1,0-4.52,3l85.31,128a2.74,2.74,0,1,0,4.52-3Z"/><path class="c" d="M249.22,214.48l-85.31-128a2.74,2.74,0,1,0-4.52,3l85.31,128a2.74,2.74,0,1,0,4.52-3Z"/><path class="c" d="M240.46,220.32l-85.31-128a2.74,2.74,0,1,0-4.52,3l85.31,128a2.74,2.74,0,1,0,4.52-3Z"/></g><g class="d"><path class="c" d="M105,231.81l85.31,128a2.74,2.74,0,1,0,4.52-3l-85.31-128a2.74,2.74,0,1,0-4.52,3Z"/><path class="c" d="M186,362.6l-85.31-128a2.74,2.74,0,1,0-4.52,3l85.31,128a2.74,2.74,0,1,0,4.52-3Z"/><path class="c" d="M177.28,368.43,92,240.47a2.74,2.74,0,1,0-4.52,3l85.31,128a2.74,2.74,0,1,0,4.52-3Z"/><path class="c" d="M168.53,374.27l-85.31-128a2.74,2.74,0,1,0-4.52,3l85.31,128a2.74,2.74,0,1,0,4.52-3Z"/><path class="c" d="M159.77,380.11l-85.31-128a2.74,2.74,0,1,0-4.52,3l85.31,128a2.74,2.74,0,1,0,4.52-3Z"/><path class="c" d="M151,385.95,65.7,258a2.74,2.74,0,1,0-4.52,3l85.31,128a2.74,2.74,0,1,0,4.52-3Z"/><path class="c" d="M142.26,391.78l-85.31-128a2.74,2.74,0,1,0-4.52,3l85.31,128a2.74,2.74,0,1,0,4.52-3Z"/><path class="c" d="M133.51,397.62l-85.31-128a2.74,2.74,0,1,0-4.52,3l85.31,128a2.74,2.74,0,1,0,4.52-3Z"/><path class="c" d="M124.75,403.46l-85.31-128a2.74,2.74,0,1,0-4.52,3l85.31,128a2.74,2.74,0,1,0,4.52-3Z"/><path class="c" d="M116,409.29l-85.31-128a2.91,2.91,0,0,0-4-1.05,2.91,2.91,0,0,0-.56,4.07l85.31,128a2.74,2.74,0,1,0,4.52-3Z"/><path class="c" d="M107.24,415.13l-85.31-128a2.91,2.91,0,0,0-4-1.05,2.91,2.91,0,0,0-.56,4.07l85.31,128a2.74,2.74,0,1,0,4.52-3Z"/><path class="c" d="M98.49,421,13.17,293a2.91,2.91,0,0,0-4-1.05A2.91,2.91,0,0,0,8.65,296L94,424a2.74,2.74,0,1,0,4.52-3Z"/><path class="c" d="M89.73,426.81l-85.31-128a2.91,2.91,0,0,0-4-1.05,2.91,2.91,0,0,0-.56,4.07l85.31,128a2.74,2.74,0,1,0,4.52-3Z"/><path class="c" d="M81,432.64l-85.31-128a2.91,2.91,0,0,0-4-1.05,2.91,2.91,0,0,0-.56,4.07l85.31,128a2.74,2.74,0,1,0,4.52-3Z"/><path class="c" d="M72.22,438.48l-85.31-128a2.91,2.91,0,0,0-4-1.05,2.91,2.91,0,0,0-.56,4.07l85.31,128a2.74,2.74,0,1,0,4.52-3Z"/><path class="c" d="M63.46,444.32l-85.31-128a2.91,2.91,0,0,0-4-1.05,2.91,2.91,0,0,0-.56,4.07l85.31,128a2.74,2.74,0,1,0,4.52-3Z"/></g><circle class="e" cx="149" cy="357" r="33.5"/><circle class="e" cx="227" cy="75" r="33.5"/></svg>